<?xml version="1.0" encoding="UTF-8"?>
<svg id="Capa_1" xmlns="http://www.w3.org/2000/svg" version="1.1" viewBox="0 0 595.28 841.89">
  <!-- Generator: Adobe Illustrator 29.0.0, SVG Export Plug-In . SVG Version: 2.1.0 Build 186)  -->
  <defs>
    <style>
      .st0 {
        fill: #8bbe30;
      }

      .st1 {
        fill: #143d1f;
      }

      .st2 {
        fill: #114d2f;
      }

      .st3 {
        fill: #387d32;
      }

      .st4 {
        fill: #1d1d1b;
        font-size: 6.82px;
      }

      .st4, .st5 {
        font-family: TrebuchetMS, 'Trebuchet MS';
      }

      .st6 {
        fill: #194d24;
      }

      .st7 {
        fill: #48a135;
      }

      .st8 {
        fill: #3d9536;
      }

      .st9 {
        fill: #82bb26;
      }

      .st10 {
        fill: #72b62b;
      }

      .st11 {
        fill: #60b22f;
      }

      .st12 {
        fill: #174520;
      }

      .st13 {
        fill: #368133;
      }

      .st14 {
        fill: #72b62e;
      }

      .st15, .st16 {
        fill: #1d6732;
      }

      .st17 {
        fill: #62ac30;
      }

      .st18 {
        fill: #a8c82e;
      }

      .st19 {
        fill: #8ebf2b;
      }

      .st20 {
        fill: #58ae31;
      }

      .st21 {
        fill: #2a6f30;
      }

      .st22 {
        fill: #a9c82b;
      }

      .st23 {
        fill: #6eb52c;
      }

      .st24 {
        fill: #8cbe23;
      }

      .st25 {
        fill: #267a33;
      }

      .st26 {
        fill: #7ab92f;
      }

      .st27 {
        fill: #469134;
      }

      .st5 {
        fill: #f3921d;
        font-size: 20.6px;
      }

      .st28 {
        fill: #216131;
      }

      .st29 {
        fill: #4a9534;
      }

      .st30 {
        fill: #3e8f35;
      }

      .st31 {
        fill: #5ba731;
      }

      .st16 {
        font-family: TrebuchetMS-Bold, 'Trebuchet MS';
        font-size: 35px;
        font-weight: 700;
      }

      .st32 {
        fill: #348133;
      }

      .st33 {
        fill: #2b7331;
      }

      .st34 {
        fill: #1e5d2a;
      }
    </style>
  </defs>
  <text/>
  <g>
    <text class="st5" transform="translate(248.32 522.78) scale(.86 1)"><tspan x="0" y="0">SOLAR ENERGY</tspan></text>
    <g>
      <path class="st31" d="M324.66,439.37c.46-.44.74-.13.82.95,1.03.06,1.66.25,2.42,1.18l.39.04c.57-.35,1.11-.25,1.61.3.9-.05,2.43.08,2.88,1.17.6.07,1.23.19,1.73.62l.15.38c.31-.41.74-.59,1.3-.53l.73-1.51c.26-.14.36-.05.26.29-1.95,4.36-3.92,8.76-5.86,13.1-.4.29-.73.66-.98,1.11-.25.16-2.35-.05-2.51-.69l-1.55-.64c-.55.35-.92.26-1.14-.27-.72-.09-1.32-.4-1.79-.93-.7-.05-1.01-.4-1.43-1h-.33c-1,.67-1.91-.3-2.3-1.38-.13.05-.2-.03-.26-.19.02-.19.05-.38.09-.56s.08-.36.15-.52c1.02-2.39,2.1-4.74,3.25-7.03.08-.15.18-.28.29-.42s.22-.26.34-.37c.27-1.2.93-2.38,1.73-3.12Z"/>
      <path class="st2" d="M295.08,486.83l.19.26-.05,2.59c-.04,1.78.16,1.75.61-.1.95-.27,1.94-.33,2.97-.21.61-.45,1.07-.12,1.39.99.9,2.93,2.21,5.44,3.95,7.52l2.23-.05c-.28-1.61.33-1.84,1.44-1.48.39.19,3.15.82,3.21.39-.09-.53-.12-1.07.28-1.38l.21.31c.19,1.31.06,3.35-.49,4.5-1.52,5.52-6.76,7.42-10.95,6.49-.04-.28.46-.02.02-.09-1.29-.2-2.26-1.14-2.94-2.51-1.96-3.92-2.19-8.98-2.35-13.49-.02-.5-.08-3.65.05-3.76.06-.06.16-.02.23.03Z"/>
      <path class="st10" d="M333.2,427.47c.59-.53,1.07-.38,1.03.62.61.14,1.19.44,1.72.9.7,0,1.27.25,1.7.77.84.17,1.44.33,1.44,1.57.82,1.39,2.11.06,2.77-.91.09-.44.34-1.05.66-.55-1.85,4.12-3.73,8.27-5.57,12.38-.15-.33-.18-.03-.24.11-.13.32-.48.92-.5,1-.06.16,0,.42-.03.45s-.15-.1-.24-.1c-.17,0-.71.07-.85.12-.19.07-.32.51-.5.46-.15-.04-.19-.51-.26-.58-.04-.03-.71-.31-.82-.36-.2-.07-.75-.07-.87-.18-.07-.06-.08-.33-.17-.45s-1.47-.68-1.65-.7c-.39-.03-.63.2-1.13-.03-.26-.12-.38-.46-.58-.48-.29-.03-.63.39-1.22.22-.32-.09-.84-.9-1.19-1.03s-1.07.04-1.41-.25c-.16-.13.15-1.31-.63-1.1.03-.16.07-.32.11-.48s.1-.3.17-.43c1.19-2.03,2.42-4.03,3.77-5.89l.65-.54c.04-.14.08-.28.13-.41.31-.76,2.75-3.65,3.37-4.01.11-.06.22-.11.33-.15Z"/>
      <path class="st18" d="M322.45,425.07c6.89-6.67,16.66-8.67,25.21-7.69.15.02.29.09.43.12.07.25-.16.29-.19.36-.68-.12-1.4.18-2.06.49-4.33,2.03-8.45,5.14-12.07,8.85l-.56.27c-1.34,1.42-2.64,2.96-3.84,4.57-.56.8-1.78.68-1.27-.6,1.2-1.61-.77-1.66-1.69-1.44l-.59-.39c-.64.45-1.36.53-2.17.26-1.05.29-1.85-.02-2.38-.95-.73-.16-.91-1.3-.49-1.95.18-.28.48-.62.6-.16.33-.61.68-1.19,1.06-1.74Z"/>
      <path class="st13" d="M314.57,462.32c.33-.81.68-.02.9.48.92.32,1.89.44,2.91.38.4.09,1.63.67,1.84,1.09.14.27.13.43-.02.68.35.13.55.49.58,1.06.54-.02,1.03.12,1.47.41.51-.14,1,.06,1.46.59.24.08,2.61-1.36,2.62-2.12.15-.19.46-.51.63-.27-.59,1.33-1.12,2.72-1.71,4.05-.45,1-2.49,5.87-2.9,6.29-.43.86-.8,1.38-1.45,1.99-.31.29-1.19,1.07-1.5,1.27-.47.29-.69.14-1.11-.18-.71-.74-1.46-1.31-2.26-1.72-.33-.53-.86-.82-1.58-.86-1.2.04-2.5-.44-3.3-1.6-.15.36-.4.6-.75.72l-.66,1.99c-.14.22-.25.2-.34-.06-.07-.11-.15-.22-.21-.34-.33-.67-1.09-4.6-1.02-5.37.01-.14.04-.28.07-.42-.1-.83,1.91-.28,2.19-.08.45.98.8.32,1.15-.4.99-2.39,1.89-4.84,2.71-7.34l.3-.23Z"/>
      <path class="st3" d="M289.89,464.72c-.14-.16-.28-.34-.38-.54-.49-1.81-1.06-3.58-1.71-5.3-.02.28-.13.51-.31.68-.16.58-.38.84-.86.51-.44-1.76-2.26-.07-2.9.71-.4.43-.87.6-1.38.69l-.36,1.63c-.1.65-.35,1-.79,1.35-.48,1.44-1,1.97-2.29,2.15-.38-.21-.55-.2-.97-.16-.19-.45-.37-.75-.53-.89-1.41-3.16-2.81-6.33-4.23-9.49.29-.06.62,0,.99.18l1.5.2c.53.36,1.09.11,1.67-.76.37.03,2.31-1.37,2.37-1.52,0-1.7.93-3.18,1.95-4.18.24-.8.82-1.09,1.74-.87.16-.46.34-.74.64-.25l.31.38c1.19,2.65,2.3,5.35,3.34,8.1l.26-1.93.22-.18c.37-.78,1.12-1.88,1.61-.64.27-.76.64-1.26,1.11-1.49.62-.66.6-7.16.57-8.51.02-.2.08-.38.17-.54.1.42.18,1.06.2,1.5.16,4.1-.24,8.56-.8,12.59-.31,2.2-.71,4.41-1.12,6.58Z"/>
      <path class="st27" d="M318.8,451.38l.48-.12c-.13.67.19.63.38.91.11.16.05.32.22.45.11.08.76.33.89.33.23,0,.38-.2.58-.24.73-.14.57.41,1.03.74.33.24.58.14.83.28.11.06.21.31.35.4.44.29.98.34,1.42.51.2.08.13.56.58.46.17-.04.26-.26.46-.23.16.03,1.51.57,1.68.68.26.18.35.47.69.57.53.16,1.11-.08,1.64.17-.03-.52.68-.89,1.06-.96-1.38,3.08-2.75,6.17-4.13,9.25l-.48.42c-.32.97-1.07,1.3-1.73,1.69-.26.15-.75.56-1,.54-.38-.03-.67-.59-.91-.66-.16-.04-.4.1-.63.06-.19-.04-.37-.28-.61-.33-.28-.06-.67.05-.89-.09-.26-.16-.13-.62-.28-.85s-.47-.14-.49-.17c-.11-.14.21-.54.19-.65-.07-.4-1.42-1.08-1.79-1.14-.72-.11-2.45.1-3.01-.44-.23-.22-.25-1.08-.77-.66-.27-.14-.11-.86.19-.84.11-.56.22-1.13.41-1.65.76-2.08,1.58-4.16,2.44-6.18.22-.51.51-.97.8-1.41-.15-.38.05-.81.38-.84Z"/>
      <path class="st29" d="M279.04,438.89c.91.94,1.65,2.32,2.02,3.72,1.28,1.77,2.33,4,2.98,6.25-.51-.2-.32.37-.54.47s-.68-.02-.95.02c-.76.09-.44.33-.75.8-.07.11-.28.22-.41.39-.88,1.21-1.43,1.98-1.53,3.73-.8.57-1.51,1.45-2.45,1.62-.42.35-.76,1.1-1.3,1.03-.21-.03-.32-.21-.48-.24-.84-.17-1.66-.04-2.44-.61-1.58-3.54-3.21-7.13-4.8-10.69-.06-.7.38-.19.55.21,1.48,2.09,2.51.98,3.87-.58l2.08-1.49c1.22-.88,2.18-2.15,2.51-3.9.1-.2,1.14-.98,1.38-.92l.27.19Z"/>
      <path class="st28" d="M309.39,476.5s.12.06.19-.09c.2-.39.47-1.8.72-2.08.14-.15.35-.08.48-.24.16-.18.2-.97.51-.4.4.7.71.72,1.33,1.1.92.57.88.25,1.8.39.19.03,1.23.36,1.38.44.24.14.26.41.34.48.12.09.4.07.62.25.48.38,1.79,1.81,2.29,1.78.2-.01.63-.54.84-.7.83-.64,1.38-.99,2.03-1.91.23-.32.22-.36.44-.59-3.09,7.14-6.32,14.19-9.51,21.27-.18.09-.26.01-.27-.21.35-6.45-1.42-12.77-3.12-18.76l-1.18,3.41-.23.07c-.36-.18-.52-.63-.38-1.08-.09-.3.07-.55.47-.76.23-.83.56-1.6.99-2.31l.27-.05Z"/>
      <path class="st0" d="M322.45,425.07l-.21.64c-.37.49-.48.96-.85,1.47-.07.09-.08.28-.09.3-.34.37-.07-.68-.09-.72-.09-.12-.41.36-.42.39-.04.13.02,1.22.05,1.27.02.04.43.2.56.32.18.18.23.45.45.64.6.54,1.13.22,1.82.25.47.02,1.03.25,1.53.12.21-.05.26-.28.41-.34.51-.2.58.3.85.34.21.04.54-.14.86-.13.24.01,1.33.32,1.39.56,0,.04-.07.74-.1.82-.1.37-.37.5-.42.77-.15.82.82.51,1.2.26-1.72,2.3-3.25,4.78-4.71,7.33-.59,1.04-1.17,2.05-1.73,3.12-.69.62-.72-.36-.22-.89-.46-.52-1.07-.83-1.83-.93-.83-.76-1.66-.84-2.67-.79-1.1-.08-3.21-1.18-2.72-2.86l-.05-.19c2.17-5.25,3.17-8.05,7.01-11.78Z"/>
      <path class="st17" d="M275,432.76c.67.33,1.45,1.3,1.63,2.16.1.05.19.1.28.17.41.32,1.92,2.82,2.06,3.42.03.12.05.25.06.38-.2.07-.53.05-.7.15-.14.08-.14.27-.23.34-.15.11-.39.09-.52.29-.12.19-.11.57-.21.82-.67,1.69-1.04,2.11-2.29,3.15-.69.57-1.52,1.03-2.2,1.58-.52.43-1.44,1.76-1.97,1.74-.23,0-1.02-.11-1.21-.18-.42-.15-.85-.85-1.09-1.28-.06-.11-.09-.45-.25-.11-1.09-2.44-2.18-4.9-3.27-7.33.05-.41.4-.4,1.02.05.52-.14,1.04-.17,1.54-.09l.77-1.27c1.21-1.09,2.54-2.27,3.84-3.21.76-.55,1.89-1.3,2.72-.76Z"/>
      <path class="st19" d="M284.9,427.71c.26.47.54.93.84,1.37-.05.92-.62.34-.94-.02-.65.72-1.41,1.24-2.27,1.58-.81.85-1.67,1.63-2.59,2.34-.5,1.21-1.39,1.73-2.67,1.55-.13.44-.3.8-.64.38-.52-.78-1.1-1.44-1.63-2.16-.73-.61-1.4-1.37-2.01-2.29-.66-.68-1.21-1.44-1.64-2.28-.1-.55-.39-1-.87-1.36-.25-.24-.54-.83-.36-1.19.06-.12,1.93-.7,2.18-.76,1.54-.21,3.83-.6,4.67-2.48.02-.04.04-.15.03-.18-.27-.29-.59-.82-.37-1.23,3.31,1.76,5.7,3.53,8.26,6.73Z"/>
      <path class="st14" d="M315.44,436.84c.41-.03-.01.54.14.96.04.11.73,1.08.82,1.14.12.07,1.23.62,1.31.64.78.18,1.6-.07,2.45.3.23.1.45.4.72.54.5.26,2.08.35,2.02,1.29-.01.16-.87.87.03.78-1.51,2.91-2.83,5.83-4.13,8.89-.12.28-.27.56-.38.84-.39.71-.83.46-1.31-.77-.52-.32-1.09-.54-1.71-.65-.87-.65-1.67-.85-2.66-.87-.9-.4-1.56-2.21-1.23-3.36,1.31-3.24,2.6-6.5,3.94-9.73Z"/>
      <path class="st26" d="M286.43,429.87c0,.28-.09.03-.08.04,1.3,2.5,2.01,5.3,2.4,8.25.01.09,0,.19-.02.29s-.05.21-.09.31c.07.34-.71.58-.93.59-.99-.5-1.81.07-2.46.97-.19-.14-.36-.23-.51-.26-.71,1.3-1.71,1.72-2.86,2.14-.18.65-.34,1.03-.82.4-.65-1.26-1.32-2.51-2.02-3.72-.77-1.33-1.56-2.71-2.4-3.97.41.16.42-.57.54-.61.37-.11.99.01,1.48-.17,1.03-.38.82-1.02,1.29-1.51s1.21-.89,1.71-1.34c.3-.27.5-.66.82-.9.44-.33.98-.39,1.42-.74.27-.21.72-.95,1.03-.85.07.02.38.76.63.47.18-.21-.75-1.19-.67-1.56.65.81.99,1.28,1.54,2.16Z"/>
      <path class="st24" d="M333.2,427.47c3.17-3.36,7.15-6.53,10.98-8.55.74-.39,2.35-1.24,3.09-1.3.15-.01.72-.13.63.25-1.67,4.09-3.59,8.04-5.38,12.02-.49.02-.31.35-.52.73-.24.43-1.33,1.52-1.74,1.56-.33.04-.98-.11-1.2-.42-.25-.35-.13-.73-.26-1.11-.19-.57-.82-.44-1.22-.64-.28-.14-.29-.43-.53-.54-.33-.14-.83-.09-1.16-.23-.29-.13-.69-.55-1.06-.72-.19-.09-.74-.15-.76-.19-.14-.19.29-1.29-.87-.84Z"/>
      <path class="st22" d="M275.48,420.38c.13.19.72.65.96.48.07.04.14.09.19.12.11.19.17.55.24.71.13.29.41.29.29.73s-1.15,1.49-1.51,1.73c-1.12.74-2.05.65-3.2.92-.55.13-1.12.41-1.67.56-.35.1-.73-.14-.45.63.14.38.8.85.89,1.04.02.04.49,1.05.11.88-.83-.41-1.82-1.34-2.3-2.28-.23-.08-.47-.16-.66-.33-3.67-3.16-7.32-6.2-11.56-7.65-.26-.09-.55-.16-.74-.07-.03-.07-.26-.1-.19-.36.68-.2,1.37-.07,2.06-.12,6.09-.47,11.8.31,17.53,3.01Z"/>
      <path class="st21" d="M277.41,465.56c.28-.38.29.53.5.64.21.11.4-.08.59-.04.14.02.23.19.31.22.07.02,1.26-.38,1.35-.42.46-.24.57-1.19.89-1.65.16-.23.41-.33.53-.54.22-.42.54-2.38.63-2.46.12-.11.61-.14.84-.27,1.05-.61,1.44-1.93,2.97-1.94.78,0,.61.78.77.83.39.12.49-.05.71-.37.06.28.07.56.04.84l-2,9.7c-.61,3.05-1.16,6.12-1.41,9.25.06.43-.12.86-.38.41-2.1-4.73-4.23-9.45-6.34-14.18Z"/>
      <path class="st9" d="M269.05,425.91c.32.48.05,1.44-.44,1.63-1.33.08-2.69.84-2.85,2.65-.21.56-1.48,1.24-2,1.28-.5.88-1.13.28-1.57-.34-.21-.46-.45-.88-.72-1.26-.22-.31-.39-.69-.56-1.04-1.7-3.5-3.27-7.35-4.82-10.97-.07-.36.29-.27.43-.24,1.25.23,3.49,1.49,4.69,2.18,2.84,1.65,5.37,3.73,7.84,6.11Z"/>
      <path class="st23" d="M269.05,425.91c.79.76,1.54,1.44,2.3,2.28,1.33,1.46,2.45,2.95,3.65,4.57-.41.05-1.03.05-1.4.23-1.33.66-2.47,1.72-3.62,2.74-.38.33-.86.47-1.32,1.05-.21.26-.76,1.35-.89,1.42-.2.12-.46-.07-.69-.04-.43.05-.72.31-1.23.1-.24-.1-.28-.49-.74-.22-1.22-2.72-2.56-5.36-3.65-8.17,0,.01.12-.04.17.03.35.51,1.09,1.98,1.68,1.76.16-.06.24-.33.36-.4.18-.1.39-.03.57-.13.14-.08,1.2-.78,1.25-.83.15-.16.09-.67.21-.94.03-.06.49-.88.56-.98.33-.52,1.11-.79,1.63-.97.24-.08.61,0,.81-.16.27-.21.32-.98.35-1.33Z"/>
      <path class="st6" d="M287.49,459.55c.07-.4.14-.8.19-1.2.03-.04.11.07.14.12.53.88,1.51,4.44,1.88,5.67.03.1.31.19.18.58-.52,3.58-1.25,7.11-1.78,10.69-.59,3.99-1.19,8.06-.91,12.14l-2.7-5.93c-.28-.58-.5-1.31-.75-1.88.3.07.17-.19.19-.42.51-6.43,2.41-13.39,3.56-19.77Z"/>
      <path class="st20" d="M318.41,452.22c-1.27,3.03-2.49,6.15-3.65,9.25-.25.59-.5-.12-.63-.5-1.13-.79-2.35-1.4-3.65-1.83-.5-.47-1.01-.85-1.53-1.15-.28.34-.59.5-.53-.12-.28-.13-.21-.94.1-.96l-.06-.37c.37-2.11.87-4.15,1.5-6.12.51-1.28,1.02-2.57,1.54-3.85.2.46,0,.77.14,1.32.11.38.64,1.59.91,1.75s1.19.1,1.64.24.86.53,1.26.7c.46.19,1.45.27,1.76.68.28.36.59,1.69,1.2.97Z"/>
      <path class="st8" d="M296.23,452.34c2.12,5,4.32,10.04,6.45,15.06.07.17.04.38.27.32l.13.04c.41,1.22.91,2.44,1.41,3.63l-.1.3c.23.7-.21.76-.68.65l-.87-.29c-.74.14-1.14.07-1.16-.95-1.14-.32-2.3-.53-3.49-.62l-.77-.29c-.26.41-.48.88-.67,1.4-.64.93-.79.11-.72-.74-.09-.09-.18-.2-.2-.34-.09-.5.13-3.18.21-3.88l.19-.35c.06-.3,0-.5-.14-.62.27-3.74.22-7.74-.05-11.56v-1.59s.19-.17.19-.17Z"/>
      <path class="st33" d="M307.75,455.95c.33-.38.52.29.41.71.2-.03.32.05.36.25-.07.36-.05.69-.1.96l.09.62c-.65,3.72-.71,7.51-.17,11.26l-.11.62c.29,2.08.72,4.09,1.15,6.13-.24.41-.52.89-.71,1.33-.16.36-.18.85-.4,1.19-.25.38-.6.2-.62.61-.1-.11-.19-.23-.28-.35s-.16-.25-.22-.39c-.94-2.21-1.88-4.44-2.72-6.7l-.05-.49c-.4-1.01-1.13-2.63-1.4-3.6-.03-.12-.05-.23-.04-.36,1.38-3.56,2.9-7.04,4.32-10.57.25.06.31-.1.19-.48.1-.24.19-.48.29-.72Z"/>
      <path class="st12" d="M295.46,477.7c.3.17.25.73,0,.96.04.17.07.35.09.52s.04.35.03.52c-.09,2.03-.19,4.08-.3,6.11-.02.35-.11.69-.21,1.02-.16.13-.1.46-.1.66-.05,4.94.15,13.08,2.69,17.06.75,1.18,1.48,1.61,2.64,1.99l-.24.12c-3.77-.83-5.08-3.29-6.1-7.69-1.61-6.92-1.17-14.75-1.01-21.87l.1-1.56c0-.32,0-.64,0-.96.22-.1.35.08.39.53-.06,1.31.94,2.14,1.86,2.39l.15.21Z"/>
      <path class="st30" d="M286.43,429.87c2.16,3.48,5.03,9.76,5.19,14.18.09,2.55.05,5.59-.3,8.1-.04.31-.14.98-.33,1.14-.13.11-.33.09-.47.25-.16.19-.52,1.46-.82,1.27-.18-.12-.16-.6-.52-.55-.3.04-.64.9-1.01.97l-.07-.41c.58-5.04,1.08-10.16.46-15.24l.09-.81c-.42-3.17-1.06-5.8-2.26-8.64-.08-.18-.29-.27.06-.25Z"/>
      <path class="st32" d="M296.23,452.34v1.74c.35,3.22.13,6.49.2,9.74l-.2,2.46c-.11-.04-.2-.15-.26-.33-.96.52-1.16.48-1.53-.77l-.36-1.92c-.18.04-.36.04-.39-.21,0-.73-.05-1.46-.15-2.18,0-3.86.09-7.75-.19-11.59-.13-1.75-.4-3.49-.57-5.23l2.35,5.4c.43.91.72,1.98,1.1,2.89Z"/>
      <path class="st1" d="M312.71,495.69c-.59,1.32-1.07,2.78-1.82,3.97.42-1.52.36-3.26.29-4.81l-.22-.57c-.16-3.1-.75-6.12-1.62-9.02l.02-.62c-.71-1.26-1.23-2.93-1.44-4.45l1.35-3.96c.19.11.26.49.33.73,1.55,5.3,3.42,12.48,3.05,18.12-.01.23-.05.41.07.62Z"/>
      <path class="st34" d="M293.54,460.87c.27.3.22,2.09.29,2.16.04.05.3-.09.4.07.07.13.32,1.74.42,2.09.46,1.58.77.5,1.33.51.34,0,.24.27.26.57.06,1.5-.27,3.07-.19,4.57-.05.37,0,.7.12.99l-.41,5.68c-.03.22-.11.26-.29.18-.57.23-1.92-1.03-2.07-1.56-.13-.46-.04-1.15-.33-1.57.06-2.56.22-5.13.29-7.69l.1-1.92c0-.24,0-.48,0-.72l.1-2.4c0-.32,0-.64,0-.96Z"/>
      <path class="st15" d="M295.46,478.66c.67-1.44,1.51-.94,1.79.57.29,1.4.68,2.75,1.16,4.03.03-.35.19-.44.44-.51.13-.04,2.45.07,2.6.12.69.21.89.6.78,1.49,1.35.21,2.7.27,4.04.17.91-1.22,2.14-1.14,2.77.4.19.02.33.09.42.21,1.08,3.55,1.65,6.38,1.82,10.21.09.28-.15.52-.16.68-.04.34.29.89-.22,1.07-.16.06-.84-.07-1.11-.08-.93-.02-.75-.09-1.55-.33-.24-.07-1.23-.31-1.41-.27-.69.16-.1,1.43-.34,1.63l-2.43.03c-.27-.22-.46-.55-.69-.82-1.73-2.03-2.27-4.16-3.34-6.75-.07-.16-.52-1.12-.56-1.16-.14-.1-.4.19-.61.23-.53.09-2.77-.24-2.98.23-.08.19-.01.45-.07.63-.15.46-.66,1.37-.75.4-.1-1.13,0-2.84,0-4.03.02-2.75.21-5.45.38-8.17Z"/>
      <path class="st7" d="M308.43,457.87c.17.49.27-.1.53-.12.44-.05.92.7,1.26.95.86.63,1.53.65,2.34,1.04.28.13,1.34.74,1.57.92.41.32.18.91.64.83-.09.24-.13.67-.19.84-.86,2.31-1.91,5.78-2.91,7.84-.16.32-.52.96-.84.88-.4-.1-.42-.52-.57-.61-.18-.11-.41-.03-.61-.09-.52-.15-.84-.41-1.41.03-.65-4.69-.6-7.85.19-12.5Z"/>
      <path class="st11" d="M288.16,455.23c-.11.78-.21,1.86-.38,2.59-.14.57-.21-.1-.27-.27-1.14-2.96-2.21-5.81-3.48-8.69-.94-2.13-1.92-4.21-2.98-6.25.69.25.43-.02.63-.48.16-.37,1.27-.48,1.67-.8.08-.06.81-.75.85-.8.18-.23.24-.86.83-.7.08.02.05.22.07.24.19.18.17-.17.25-.23.2-.16.66-.63.7-.66.44-.29,1.22-.35,1.67-.06l.92-.36c.74,5.56.33,10.95-.48,16.46Z"/>
      <path class="st25" d="M296.04,470.85c.02.36-.03.7.24.96.51-.39.54-1,.8-1.52.31-.65.57-.18,1.05-.06,1.08.26,2.26.1,3.19.57.15.07.39.02.49.11.18.16.02.77.26.91s.59-.04.83,0c.38.07,1.57.77,1.5-.12,1.04,2.66,2.26,5.25,3.27,7.93.13.35.25.73.38,1.08.53,1.45.99,2.96,1.44,4.45-.87.46-.73-1.14-1.59-1.21-.22-.02-.79.11-.98.22-.23.13-.38.53-.57.6-.79.31-2.2-.03-3.05-.09-.43-.03-.87.02-1.3,0,.45-2.02-.9-1.51-1.97-1.56-.24,0-1.32-.33-1.39.07-.19,1.02.79,1.32.1,2.2-.26-.66-.31-1.38-.5-2.07-.11-.37-.3-.7-.41-1.05-.32-1.1-.67-3.07-1.12-4-.31-.63-.85.22-1.23.4.02-.32-.02-.65,0-.96,0-.04.13-.18.1-.29l.48-6.56Z"/>
    </g>
    <text class="st16" transform="translate(317.71 504.33) scale(.77 1)"><tspan x="0" y="0">OLT</tspan></text>
    <text class="st4" transform="translate(248.53 530.23) scale(.85 1)"><tspan x="0" y="0">Soluciones solares que transforman tu mundo </tspan></text>
  </g>
</svg>