<?xml version="1.0" encoding="UTF-8"?>
<svg id="Capa_1" data-name="Capa 1" xmlns="http://www.w3.org/2000/svg" viewBox="0 0 510.24 510.24">
  <defs>
    <style>
      .cls-1 {
        fill: #114d2f;
      }

      .cls-2 {
        fill: #267b34;
      }

      .cls-3 {
        fill: #8bbe31;
      }

      .cls-4 {
        fill: #4b9434;
      }

      .cls-5 {
        fill: #81ba27;
      }

      .cls-6 {
        fill: #2d7431;
      }

      .cls-7 {
        fill: #459034;
      }

      .cls-8 {
        fill: #a7c72d;
      }

      .cls-9 {
        fill: #368133;
      }

      .cls-10 {
        fill: #1f5e2b;
      }

      .cls-11 {
        fill: #194522;
      }

      .cls-12 {
        fill: #194c25;
      }

      .cls-13 {
        fill: #79b730;
      }

      .cls-14 {
        fill: #58ae31;
      }

      .cls-15 {
        fill: #216232;
      }

      .cls-16 {
        fill: #3d9336;
      }

      .cls-17 {
        fill: #a7c72e;
      }

      .cls-18 {
        fill: #163c21;
      }

      .cls-19 {
        fill: #71b52e;
      }

      .cls-20 {
        fill: #8ebf2d;
      }

      .cls-21 {
        fill: #8cbe27;
      }

      .cls-22 {
        fill: #71b52f;
      }

      .cls-23 {
        fill: #63ac30;
      }

      .cls-24 {
        fill: #60b133;
      }

      .cls-25 {
        fill: #5ba731;
      }

      .cls-26 {
        fill: #479f35;
      }

      .cls-27 {
        fill: #1d6832;
      }

      .cls-28 {
        fill: #6eb42c;
      }

      .cls-29 {
        fill: #358134;
      }

      .cls-30 {
        fill: #3a7e32;
      }

      .cls-31 {
        fill: #3e8e35;
      }

      .cls-32 {
        fill: #2a7031;
      }
    </style>
  </defs>
  <path class="cls-25" d="M380.52,126.36c2.56-2.51,4.07-.71,4.55,5.4,5.71.34,9.16,1.45,13.41,6.71l2.17.23c3.16-1.99,6.12-1.42,8.88,1.7,4.97-.3,13.46.47,15.94,6.64,3.3.39,6.8,1.06,9.58,3.53l.81,2.16c1.71-2.34,4.1-3.34,7.17-3l4.04-8.61c1.46-.79,2-.28,1.46,1.64-10.81,24.78-21.68,49.82-32.41,74.47-2.24,1.64-4.04,3.75-5.4,6.33-1.38.94-13.01-.27-13.87-3.91l-8.6-3.62c-3.02,2-5.12,1.49-6.29-1.53-4.01-.51-7.3-2.27-9.88-5.26-3.88-.26-5.59-2.27-7.94-5.66l-1.85.03c-5.54,3.79-10.57-1.72-12.74-7.86-.7.29-1.08-.15-1.44-1.05.13-1.07.29-2.13.51-3.17s.45-2.04.83-2.94c5.64-13.56,11.6-26.96,18-39.95.43-.87,1.01-1.62,1.59-2.37.59-.76,1.24-1.45,1.91-2.12,1.48-6.81,5.17-13.52,9.56-17.76Z"/>
  <path class="cls-1" d="M216.86,396.23l1.04,1.47-.27,14.7c-.24,10.14.88,9.96,3.36-.55,5.25-1.51,10.73-1.9,16.45-1.18,3.36-2.55,5.93-.67,7.7,5.62,4.97,16.65,12.25,30.91,21.83,42.78l12.36-.28c-1.54-9.16,1.84-10.46,7.99-8.41,2.16,1.07,17.41,4.65,17.76,2.2-.52-2.99-.64-6.09,1.57-7.83l1.14,1.76c1.06,7.45.33,19.03-2.73,25.57-8.39,31.37-37.38,42.16-60.57,36.89-.22-1.57,2.55-.13.1-.53-7.13-1.16-12.5-6.51-16.28-14.26-10.85-22.29-12.13-51.06-12.99-76.73-.09-2.82-.46-20.73.25-21.37.35-.32.86-.09,1.28.16Z"/>
  <path class="cls-19" d="M427.81,58.72c3.29-3.04,5.93-2.19,5.69,3.5,3.38.78,6.56,2.49,9.53,5.14,3.88-.04,7.01,1.42,9.4,4.38,4.66.95,7.98,1.85,7.97,8.91,4.52,7.88,11.69.35,15.32-5.18.51-2.52,1.87-5.97,3.63-3.1-10.24,23.44-20.64,47.03-30.82,70.37-.84-1.88-1.02-.19-1.33.65-.69,1.84-2.64,5.26-2.78,5.67-.31.92-.04,2.39-.15,2.57s-.81-.58-1.3-.56c-.94.04-3.95.42-4.7.7-1.04.38-1.8,2.88-2.75,2.6-.81-.24-1.06-2.91-1.45-3.27-.2-.18-3.91-1.78-4.54-2.02-1.1-.42-4.12-.37-4.79-1.01-.36-.34-.42-1.85-.92-2.56-.49-.69-8.11-3.88-9.16-3.96-2.18-.16-3.51,1.15-6.23-.18-1.43-.7-2.13-2.6-3.22-2.74-1.59-.2-3.48,2.22-6.78,1.25-1.74-.52-4.62-5.14-6.6-5.86-1.91-.7-5.92.24-7.82-1.43-.86-.75.81-7.43-3.5-6.23.17-.92.37-1.83.63-2.7s.53-1.72.93-2.43c6.57-11.55,13.37-22.89,20.85-33.49l3.62-3.04c.21-.8.44-1.59.74-2.33,1.74-4.32,15.22-20.78,18.67-22.8.59-.35,1.22-.6,1.85-.83Z"/>
  <path class="cls-17" d="M368.3,45.06C406.44,7.11,460.45-4.22,507.78,1.33c.83.1,1.58.52,2.39.69.39,1.43-.9,1.65-1.06,2.04-3.73-.7-7.77,1.03-11.41,2.78-23.95,11.54-46.74,29.22-66.8,50.33l-3.09,1.54c-7.4,8.07-14.63,16.86-21.25,25.96-3.12,4.57-9.85,3.87-7.01-3.42,6.63-9.14-4.24-9.43-9.34-8.21l-3.26-2.19c-3.51,2.54-7.52,3.04-12.02,1.49-5.82,1.66-10.21-.13-13.16-5.38-4.04-.93-5.03-7.4-2.69-11.1,1-1.59,2.68-3.54,3.33-.91,1.81-3.45,3.77-6.75,5.89-9.9Z"/>
  <path class="cls-9" d="M324.72,256.85c1.82-4.61,3.76-.14,4.97,2.7,5.09,1.8,10.46,2.53,16.11,2.17,2.23.49,9.01,3.81,10.19,6.17.76,1.51.69,2.46-.12,3.86,1.94.75,3.02,2.76,3.23,6.02,2.97-.12,5.67.66,8.11,2.32,2.83-.78,5.52.34,8.07,3.35,1.32.44,14.45-7.74,14.51-12.06.8-1.09,2.53-2.91,3.48-1.56-3.28,7.55-6.19,15.44-9.47,23.01-2.48,5.7-13.78,33.38-16.03,35.75-2.39,4.89-4.44,7.85-8.03,11.32-1.7,1.64-6.6,6.1-8.33,7.2-2.6,1.67-3.82.79-6.13-1.01-3.92-4.2-8.08-7.46-12.5-9.77-1.85-3.01-4.77-4.64-8.76-4.91-6.62.22-13.84-2.47-18.28-9.07-.81,2.07-2.19,3.43-4.14,4.1l-3.67,11.33c-.76,1.26-1.4,1.15-1.9-.32-.41-.62-.81-1.25-1.14-1.93-1.84-3.79-6.01-26.17-5.63-30.52.07-.8.22-1.6.39-2.39-.57-4.72,10.59-1.59,12.11-.45,2.49,5.57,4.41,1.81,6.34-2.28,5.46-13.61,10.46-27.52,14.98-41.74l1.64-1.31Z"/>
  <path class="cls-30" d="M188.17,270.52c-.75-.92-1.54-1.91-2.09-3.1-2.69-10.31-5.85-20.36-9.46-30.16-.11,1.6-.74,2.9-1.74,3.88-.88,3.28-2.11,4.77-4.76,2.91-2.44-10.01-12.49-.4-16.06,4.05-2.24,2.43-4.79,3.42-7.64,3.93l-1.99,9.28c-.57,3.7-1.95,5.71-4.36,7.7-2.66,8.21-5.53,11.2-12.69,12.21-2.11-1.22-3.05-1.13-5.35-.88-1.06-2.56-2.04-4.24-2.93-5.04-7.8-17.97-15.57-36.02-23.38-53.97,1.6-.37,3.42-.04,5.46,1l8.28,1.13c2.95,2.07,6.03.62,9.24-4.35,2.06.19,12.79-7.79,13.12-8.65-.03-9.67,5.15-18.07,10.78-23.75,1.32-4.55,4.52-6.19,9.62-4.93.87-2.62,1.91-4.2,3.53-1.43l1.73,2.15c6.57,15.04,12.72,30.39,18.46,46.06l1.44-10.97,1.22-1.03c2.05-4.42,6.2-10.71,8.88-3.64,1.51-4.34,3.55-7.15,6.14-8.44,3.41-3.75,3.32-40.68,3.14-48.37.13-1.13.45-2.15.97-3.08.56,2.37.99,6.05,1.08,8.51.89,23.29-1.33,48.65-4.43,71.57-1.69,12.53-3.94,25.07-6.22,37.43Z"/>
  <path class="cls-7" d="M348.1,194.68l2.65-.68c-.7,3.83,1.08,3.6,2.12,5.17.6.9.25,1.84,1.2,2.57.6.46,4.23,1.87,4.93,1.86,1.28-.02,2.08-1.15,3.21-1.37,4.06-.8,3.18,2.32,5.7,4.21,1.83,1.38,3.23.79,4.62,1.58.63.36,1.17,1.78,1.93,2.3,2.42,1.63,5.45,1.93,7.83,2.91,1.08.45.72,3.18,3.23,2.64.92-.2,1.42-1.49,2.57-1.28.86.15,8.33,3.22,9.27,3.87,1.46,1.01,1.93,2.67,3.84,3.26,2.94.91,6.13-.43,9.06.98-.14-2.97,3.77-5.05,5.85-5.47-7.63,17.51-15.24,35.08-22.85,52.61l-2.65,2.36c-1.8,5.51-5.92,7.41-9.57,9.59-1.44.86-4.12,3.17-5.54,3.07-2.1-.15-3.73-3.38-5.02-3.74-.86-.24-2.21.59-3.49.32-1.05-.22-2.03-1.57-3.35-1.88-1.54-.36-3.71.3-4.93-.49-1.44-.92-.72-3.51-1.53-4.86-.79-1.31-2.6-.81-2.72-.96-.63-.77,1.18-3.05,1.06-3.71-.39-2.25-7.88-6.14-9.88-6.46-3.96-.62-13.55.57-16.66-2.5-1.27-1.25-1.38-6.13-4.27-3.73-1.5-.79-.59-4.9,1.06-4.78.6-3.19,1.21-6.41,2.28-9.41,4.23-11.84,8.74-23.64,13.47-35.16,1.2-2.91,2.82-5.49,4.43-8.04-.85-2.13.29-4.59,2.13-4.78Z"/>
  <path class="cls-4" d="M128.13,123.63c5.03,5.36,9.13,13.19,11.16,21.18,7.08,10.08,12.92,22.75,16.47,35.53-2.81-1.12-1.79,2.1-2.98,2.65-1.13.52-3.75-.09-5.25.09-4.19.51-2.43,1.87-4.16,4.56-.39.6-1.56,1.26-2.25,2.23-4.88,6.87-7.9,11.26-8.46,21.23-4.42,3.25-8.37,8.24-13.54,9.23-2.31,1.98-4.21,6.23-7.21,5.83-1.17-.16-1.78-1.2-2.68-1.38-4.66-.96-9.19-.21-13.52-3.46-8.76-20.15-17.75-40.55-26.57-60.81-.33-3.98,2.1-1.08,3.03,1.2,8.2,11.9,13.86,5.56,21.39-3.32l11.52-8.46c6.76-5.01,12.07-12.21,13.9-22.17.53-1.13,6.31-5.56,7.65-5.22l1.5,1.07Z"/>
  <path class="cls-15" d="M296.03,337.47c.03-.06.66.33,1.06-.49,1.08-2.23,2.6-10.23,3.99-11.81.77-.87,1.91-.48,2.67-1.35.86-1,1.08-5.49,2.84-2.3,2.19,3.98,3.94,4.08,7.36,6.25,5.1,3.24,4.86,1.42,9.94,2.24,1.04.17,6.81,2.03,7.61,2.51,1.33.8,1.42,2.34,1.88,2.71.65.53,2.21.42,3.43,1.41,2.67,2.16,9.89,10.3,12.65,10.13,1.11-.07,3.51-3.06,4.66-3.98,4.57-3.66,7.64-5.64,11.22-10.85,1.26-1.84,1.22-2.07,2.44-3.35-17.12,40.6-34.98,80.7-52.6,120.93-.98.53-1.43.08-1.52-1.21,1.94-36.69-7.83-72.6-17.26-106.68l-6.51,19.38-1.28.39c-2.01-1-2.87-3.56-2.13-6.15-.5-1.71.37-3.15,2.62-4.33,1.28-4.7,3.1-9.07,5.46-13.13l1.48-.31Z"/>
  <path class="cls-3" d="M368.3,45.06l-1.14,3.63c-2.06,2.81-2.63,5.45-4.72,8.34-.39.53-.46,1.62-.52,1.69-1.91,2.1-.39-3.89-.52-4.09-.47-.71-2.25,2.02-2.3,2.23-.2.73.12,6.92.26,7.23.1.2,2.39,1.12,3.09,1.84,1.01,1.04,1.27,2.53,2.48,3.64,3.35,3.05,6.26,1.27,10.04,1.44,2.62.12,5.71,1.39,8.47.7,1.15-.29,1.46-1.59,2.24-1.91,2.82-1.16,3.22,1.68,4.7,1.94,1.19.21,3.01-.81,4.73-.72,1.31.07,7.37,1.79,7.69,3.17.05.23-.41,4.19-.53,4.65-.54,2.1-2.06,2.85-2.34,4.4-.84,4.66,4.52,2.91,6.63,1.45-9.53,13.1-18,27.18-26.04,41.68-3.27,5.9-6.49,11.68-9.56,17.76-3.79,3.52-4-2.02-1.21-5.04-2.54-2.96-5.91-4.72-10.11-5.27-4.58-4.33-9.17-4.77-14.76-4.5-6.09-.46-17.78-6.71-15.06-16.24l-.3-1.05c12.02-29.84,17.51-45.79,38.79-66.95Z"/>
  <path class="cls-23" d="M105.81,88.78c3.69,1.88,8.03,7.38,9.03,12.3.54.28,1.06.58,1.54.97,2.29,1.83,10.61,16.06,11.4,19.42.17.7.26,1.43.33,2.16-1.12.4-2.93.3-3.89.83-.8.44-.78,1.56-1.26,1.93-.82.63-2.14.49-2.86,1.63-.68,1.08-.61,3.24-1.16,4.66-3.73,9.63-5.77,12.01-12.66,17.89-3.82,3.26-8.44,5.83-12.14,8.98-2.89,2.45-7.99,9.99-10.9,9.89-1.25-.04-5.67-.64-6.69-1.02-2.31-.87-4.69-4.84-6.05-7.28-.36-.64-.51-2.58-1.37-.61-6.03-13.86-12.05-27.88-18.07-41.68.3-2.35,2.19-2.26,5.65.27,2.9-.8,5.73-.98,8.49-.53l4.26-7.2c6.67-6.17,14.03-12.9,21.27-18.27,4.2-3.12,10.45-7.41,15.06-4.33Z"/>
  <path class="cls-20" d="M160.54,60.09c1.43,2.68,2.97,5.28,4.65,7.8-.25,5.24-3.45,1.93-5.19-.1-3.61,4.07-7.79,7.05-12.54,8.96-4.48,4.85-9.26,9.3-14.31,13.33-2.76,6.87-7.68,9.82-14.77,8.83-.72,2.48-1.67,4.55-3.53,2.17-2.88-4.42-6.07-8.18-9.03-12.3-4.07-3.45-7.76-7.8-11.1-13.02-3.64-3.88-6.67-8.19-9.1-12.94-.54-3.11-2.15-5.69-4.84-7.73-1.36-1.37-2.99-4.74-1.98-6.79.34-.69,10.66-3.96,12.08-4.35,8.52-1.22,21.19-3.43,25.86-14.11.09-.22.24-.84.17-1.02-1.49-1.63-3.26-4.63-2.07-6.99,18.33,10,31.54,20.09,45.7,38.26Z"/>
  <path class="cls-22" d="M329.51,112.01c2.25-.19-.07,3.07.8,5.45.24.65,4.03,6.17,4.54,6.48.66.4,6.81,3.52,7.27,3.63,4.31,1.01,8.83-.38,13.55,1.71,1.25.55,2.48,2.26,3.98,3.08,2.75,1.5,11.49,1.99,11.16,7.34-.06.93-4.82,4.96.15,4.43-8.35,16.53-15.64,33.17-22.85,50.56-.66,1.6-1.47,3.16-2.13,4.78-2.15,4.05-4.57,2.6-7.25-4.36-2.86-1.84-6.01-3.07-9.46-3.69-4.83-3.7-9.24-4.84-14.73-4.94-4.96-2.28-8.63-12.54-6.81-19.12,7.27-18.44,14.39-36.98,21.79-55.34Z"/>
  <path class="cls-13" d="M169.04,72.39c-.05,1.6-.48.19-.45.25,7.2,14.2,11.12,30.16,13.29,46.91.07.52-.03,1.07-.13,1.65s-.29,1.17-.49,1.74c.38,1.93-3.94,3.28-5.16,3.34-5.5-2.83-10.01.39-13.6,5.54-1.07-.8-2.01-1.29-2.83-1.46-3.91,7.41-9.47,9.78-15.83,12.19-1,3.72-1.88,5.83-4.55,2.25-3.58-7.14-7.3-14.28-11.16-21.18-4.23-7.58-8.62-15.41-13.28-22.55,2.25.91,2.31-3.23,3.01-3.45,2.07-.63,5.5.07,8.18-.95,5.7-2.18,4.56-5.79,7.13-8.6s6.71-5.04,9.49-7.61c1.64-1.52,2.77-3.76,4.53-5.11,2.43-1.85,5.42-2.22,7.88-4.21,1.47-1.19,4-5.39,5.69-4.83.4.13,2.1,4.31,3.5,2.65,1-1.18-4.15-6.76-3.72-8.88,3.58,4.59,5.45,7.25,8.5,12.3Z"/>
  <path class="cls-21" d="M427.81,58.72c17.52-19.09,39.55-37.14,60.74-48.63,4.11-2.23,12.98-7.06,17.08-7.42.81-.07,3.96-.76,3.48,1.4-9.26,23.24-19.88,45.72-29.76,68.32-2.72.12-1.74,2-2.89,4.15-1.32,2.47-7.37,8.62-9.6,8.87-1.83.2-5.41-.64-6.65-2.41-1.41-2-.74-4.17-1.45-6.34-1.07-3.26-4.51-2.5-6.75-3.66-1.56-.8-1.62-2.47-2.92-3.05-1.8-.8-4.58-.49-6.43-1.3-1.62-.71-3.82-3.13-5.84-4.11-1.02-.49-4.07-.87-4.22-1.07-.77-1.08,1.61-7.32-4.8-4.76Z"/>
  <path class="cls-8" d="M108.47,18.41c.7,1.1,3.96,3.69,5.31,2.73.41.22.75.51,1.06.68.62,1.1.94,3.12,1.35,4.05.72,1.63,2.26,1.62,1.63,4.17-.64,2.6-6.37,8.48-8.34,9.82-6.17,4.18-11.32,3.68-17.71,5.24-3.07.75-6.19,2.31-9.21,3.19-1.93.56-4.04-.81-2.51,3.58.76,2.17,4.42,4.86,4.95,5.94.11.23,2.74,5.99.62,5.01-4.6-2.35-10.1-7.61-12.75-12.98-1.27-.44-2.58-.92-3.68-1.89C48.89,29.99,28.71,12.73,5.23,4.47c-1.42-.5-3.05-.9-4.09-.41-.18-.42-1.45-.59-1.06-2.05,3.76-1.14,7.61-.39,11.42-.69,33.7-2.67,65.3,1.79,96.98,17.09Z"/>
  <path class="cls-32" d="M119.09,275.3c1.57-2.15,1.58,3,2.79,3.66,1.14.62,2.21-.45,3.28-.25.75.14,1.25,1.1,1.74,1.22.38.1,6.97-2.15,7.46-2.41,2.54-1.36,3.14-6.76,4.91-9.4.86-1.29,2.28-1.87,2.91-3.09,1.22-2.39,3.01-13.54,3.46-13.99.65-.65,3.4-.81,4.64-1.55,5.83-3.47,7.94-10.98,16.42-11.01,4.34-.01,3.36,4.46,4.27,4.74,2.15.67,2.69-.26,3.9-2.08.31,1.57.39,3.16.24,4.77l-11.06,55.14c-3.39,17.31-6.39,34.8-7.8,52.57.31,2.43-.67,4.91-2.1,2.3-11.62-26.87-23.4-53.75-35.07-80.62Z"/>
  <path class="cls-5" d="M72.87,49.84c1.77,2.72.25,8.17-2.42,9.28-7.36.45-14.86,4.75-15.79,15.08-1.14,3.17-8.18,7.05-11.09,7.28-2.78,5-6.24,1.6-8.7-1.92-1.17-2.61-2.5-5-3.98-7.17-1.21-1.77-2.14-3.93-3.09-5.94C18.37,46.57,9.73,24.63,1.14,4.06c-.41-2.04,1.6-1.53,2.4-1.39,6.93,1.28,19.31,8.45,25.96,12.41,15.72,9.38,29.73,21.22,43.38,34.75Z"/>
  <path class="cls-28" d="M72.87,49.84c4.37,4.33,8.53,8.21,12.75,12.98,7.35,8.32,13.58,16.77,20.19,25.96-2.26.29-5.7.28-7.75,1.31-7.38,3.73-13.68,9.79-20.04,15.57-2.09,1.9-4.76,2.65-7.31,5.98-1.14,1.48-4.21,7.66-4.91,8.1-1.11.69-2.53-.4-3.82-.25-2.36.27-3.98,1.76-6.82.58-1.31-.55-1.57-2.77-4.1-1.22-6.73-15.46-14.17-30.49-20.19-46.46.05.07.68-.22.93.15,1.95,2.89,6.01,11.24,9.31,9.98.9-.34,1.3-1.88,1.98-2.27.98-.57,2.13-.15,3.15-.73.77-.44,6.64-4.41,6.94-4.74.82-.9.51-3.79,1.16-5.36.15-.36,2.72-4.98,3.09-5.57,1.82-2.94,6.16-4.5,9-5.5,1.35-.48,3.37-.04,4.46-.93,1.48-1.2,1.74-5.55,1.95-7.57Z"/>
  <path class="cls-12" d="M174.89,241.14c.39-2.25.76-4.56,1.07-6.83.17-.22.61.39.79.68,2.95,5.01,8.35,25.23,10.41,32.25.17.58,1.71,1.05,1.01,3.28-2.86,20.37-6.9,40.43-9.84,60.79-3.28,22.71-6.57,45.81-5.04,69.02l-14.96-33.7c-1.54-3.3-2.74-7.43-4.16-10.71,1.68.38.95-1.09,1.05-2.38,2.8-36.55,13.35-76.15,19.68-112.4Z"/>
  <path class="cls-14" d="M345.98,199.46c-7.03,17.26-13.75,34.98-20.19,52.61-1.41,3.35-2.79-.65-3.5-2.86-6.25-4.51-12.98-7.98-20.18-10.42-2.77-2.67-5.59-4.85-8.44-6.54-1.52,1.95-3.24,2.87-2.95-.66-1.53-.72-1.15-5.33.53-5.47l-.33-2.1c2.07-12,4.84-23.6,8.3-34.8,2.85-7.27,5.64-14.6,8.5-21.86,1.11,2.6-.05,4.36.8,7.48.59,2.18,3.53,9.04,5.06,9.92,1.46.84,6.58.55,9.05,1.35,2.52.82,4.76,3.04,6.98,4.01,2.52,1.11,8.01,1.55,9.76,3.85,1.54,2.03,3.29,9.6,6.62,5.5Z"/>
  <path class="cls-16" d="M223.24,200.15c11.72,28.45,23.89,57.08,35.7,85.65.4.96.21,2.16,1.5,1.8l.7.23c2.25,6.95,5.05,13.85,7.81,20.62l-.53,1.69c1.29,4-1.16,4.31-3.76,3.68l-4.81-1.64c-4.08.82-6.3.41-6.4-5.41-6.31-1.82-12.75-2.99-19.3-3.5l-4.29-1.68c-1.43,2.32-2.66,4.98-3.71,7.99-3.52,5.28-4.38.62-3.97-4.22-.49-.51-.98-1.12-1.13-1.94-.5-2.85.74-18.09,1.16-22.04l1.03-1.98c.32-1.68.05-2.86-.79-3.54,1.47-21.24,1.23-44.01-.26-65.71v-9.05s1.05-.95,1.05-.95Z"/>
  <path class="cls-6" d="M287,220.64c1.82-2.13,2.89,1.67,2.27,4.02,1.11-.17,1.77.31,1.98,1.45-.38,2.02-.27,3.9-.53,5.47l.52,3.53c-3.59,21.16-3.91,42.69-.96,64.01l-.62,3.51c1.59,11.85,3.96,23.26,6.38,34.84-1.31,2.35-2.87,5.06-3.93,7.58-.86,2.03-1.01,4.84-2.2,6.74-1.36,2.17-3.33,1.14-3.43,3.45-.54-.64-1.06-1.29-1.52-2-.46-.7-.9-1.41-1.22-2.19-5.21-12.54-10.43-25.24-15.03-38.11l-.29-2.79c-2.19-5.74-6.25-14.96-7.73-20.5-.18-.67-.28-1.33-.24-2.05,7.65-20.24,16.03-40.04,23.91-60.12,1.37.37,1.73-.54,1.06-2.73.54-1.37,1.06-2.73,1.59-4.1Z"/>
  <path class="cls-11" d="M218.99,344.3c1.66.96,1.37,4.13,0,5.47.21.98.4,1.97.52,2.97.12.99.21,1.96.17,2.93-.49,11.56-1.06,23.19-1.67,34.74-.11,2.01-.62,3.94-1.15,5.82-.88.71-.53,2.59-.54,3.75-.27,28.06.81,74.35,14.9,97.01,4.15,6.69,8.19,9.14,14.59,11.29l-1.32.68c-20.84-4.74-28.1-18.71-33.74-43.73-8.88-39.36-6.48-83.86-5.58-124.34l.53-8.88c0-1.82-.04-3.65,0-5.47,1.21-.56,1.92.44,2.16,2.99-.31,7.46,5.21,12.14,10.31,13.56l.82,1.21Z"/>
  <path class="cls-31" d="M169.04,72.39c11.97,19.79,27.8,55.5,28.69,80.62.51,14.49.28,31.8-1.65,46.04-.24,1.74-.8,5.59-1.85,6.5-.73.63-1.82.49-2.6,1.44-.87,1.07-2.89,8.31-4.55,7.2-1.01-.67-.9-3.42-2.88-3.16-1.65.22-3.55,5.09-5.6,5.5l-.39-2.34c3.23-28.65,5.97-57.76,2.52-86.66l.52-4.6c-2.34-18.04-5.87-32.98-12.53-49.14-.43-1.03-1.61-1.54.31-1.42Z"/>
  <path class="cls-29" d="M223.24,200.15v9.9c1.92,18.32.72,36.92,1.09,55.38l-1.09,13.97c-.61-.24-1.08-.86-1.43-1.87-5.3,2.97-6.39,2.73-8.48-4.4l-2-10.91c-.97.21-2,.24-2.17-1.18.01-4.18-.25-8.31-.8-12.39,0-21.93.5-44.08-1.07-65.92-.71-9.93-2.22-19.84-3.18-29.72l13.02,30.73c2.37,5.19,3.97,11.24,6.1,16.41Z"/>
  <path class="cls-18" d="M314.42,446.64c-3.29,7.5-5.9,15.81-10.1,22.55,2.32-8.67,1.98-18.54,1.59-27.33l-1.23-3.22c-.87-17.62-4.13-34.83-8.97-51.31l.1-3.55c-3.91-7.16-6.78-16.67-7.97-25.28l7.45-22.54c1.07.63,1.45,2.79,1.83,4.13,8.57,30.16,18.91,70.96,16.89,103.02-.08,1.31-.3,2.35.4,3.53Z"/>
  <path class="cls-10" d="M208.36,248.65c1.49,1.7,1.23,11.88,1.59,12.3.23.26,1.68-.53,2.19.39.41.73,1.76,9.91,2.33,11.9,2.55,9,4.24,2.86,7.35,2.92,1.88.04,1.36,1.54,1.42,3.23.31,8.55-1.51,17.48-1.06,25.96-.27,2.1-.05,3.97.67,5.61l-2.26,32.31c-.17,1.27-.63,1.47-1.59,1.03-3.15,1.29-10.64-5.85-11.45-8.85-.7-2.6-.24-6.54-1.84-8.91.32-14.57,1.21-29.16,1.59-43.73l.53-10.93c0-1.37,0-2.73,0-4.1l.53-13.66c0-1.82,0-3.65,0-5.47Z"/>
  <path class="cls-27" d="M218.99,349.77c3.7-8.18,8.36-5.34,9.93,3.26,1.6,7.98,3.75,15.62,6.44,22.93.18-1.99,1.06-2.48,2.43-2.89.7-.21,13.54.4,14.4.67,3.8,1.21,4.92,3.43,4.33,8.45,7.47,1.18,14.93,1.51,22.36.98,5.03-6.93,11.84-6.5,15.35,2.29,1.05.13,1.83.53,2.34,1.2,5.96,20.21,9.14,36.25,10.1,58.07.5,1.59-.81,2.97-.9,3.87-.2,1.94,1.63,5.05-1.22,6.1-.86.32-4.67-.41-6.14-.44-5.17-.12-4.14-.5-8.6-1.86-1.35-.41-6.79-1.76-7.82-1.52-3.81.89-.54,8.14-1.86,9.25l-13.47.17c-1.48-1.26-2.55-3.12-3.84-4.66-9.56-11.52-12.56-23.66-18.47-38.4-.37-.93-2.85-6.39-3.11-6.58-.77-.57-2.21,1.1-3.36,1.31-2.95.54-15.34-1.36-16.51,1.32-.47,1.07-.08,2.58-.39,3.59-.82,2.63-3.65,7.78-4.14,2.26-.58-6.42-.03-16.14.03-22.92.13-15.65,1.14-31.01,2.13-46.46Z"/>
  <path class="cls-26" d="M290.72,231.57c.92,2.79,1.52-.55,2.94-.7,2.46-.27,5.1,3.97,6.97,5.38,4.78,3.58,8.49,3.72,12.95,5.89,1.54.75,7.42,4.23,8.68,5.24,2.26,1.83.99,5.18,3.52,4.69-.5,1.36-.71,3.81-1.06,4.78-4.78,13.14-10.58,32.88-16.08,44.57-.86,1.82-2.87,5.47-4.64,5-2.23-.59-2.34-2.95-3.16-3.46-1.01-.62-2.27-.16-3.35-.49-2.89-.88-4.67-2.35-7.83.16-3.59-26.68-3.31-44.62,1.06-71.05Z"/>
  <path class="cls-24" d="M178.6,216.54c-.64,4.45-1.15,10.6-2.11,14.72-.76,3.24-1.14-.57-1.5-1.52-6.28-16.8-12.21-33.05-19.24-49.41-5.2-12.09-10.65-23.92-16.47-35.53,3.82,1.42,2.4-.14,3.47-2.71.87-2.09,7.01-2.74,9.23-4.53.44-.35,4.49-4.28,4.7-4.55,1.01-1.33,1.34-4.91,4.58-3.97.45.13.3,1.27.37,1.34,1.07,1.01.96-.95,1.39-1.31,1.09-.91,3.66-3.59,3.89-3.74,2.44-1.63,6.74-1.99,9.24-.36l5.1-2.04c4.09,31.6,1.82,62.28-2.66,93.6Z"/>
  <path class="cls-2" d="M222.18,305.36c.11,2.06-.15,3.96,1.33,5.45,2.8-2.2,3-5.66,4.41-8.66,1.73-3.69,3.16-1.02,5.81-.37,5.97,1.47,12.48.59,17.66,3.26.81.42,2.15.12,2.7.62.99.9.13,4.37,1.44,5.16,1.26.77,3.27-.23,4.57.02,2.09.41,8.66,4.38,8.3-.71,5.77,15.11,12.51,29.86,18.07,45.09.73,2,1.41,4.12,2.13,6.15,2.91,8.23,5.48,16.83,7.97,25.28-4.83,2.6-4.01-6.48-8.78-6.88-1.19-.1-4.35.62-5.43,1.25-1.29.75-2.09,2.99-3.18,3.43-4.35,1.75-12.19-.18-16.9-.53-2.38-.17-4.79.11-7.17-.01,2.47-11.49-4.99-8.61-10.92-8.85-1.31-.05-7.28-1.86-7.7.43-1.07,5.78,4.39,7.53.56,12.53-1.43-3.78-1.69-7.84-2.79-11.79-.58-2.09-1.68-3.95-2.25-5.99-1.75-6.24-3.69-17.47-6.2-22.77-1.71-3.6-4.69,1.24-6.83,2.29.11-1.8-.12-3.67,0-5.47.01-.2.72-1.01.55-1.65l2.63-37.29Z"/>
</svg>