<?xml version="1.0" encoding="UTF-8"?>
<svg id="Capa_1" data-name="Capa 1" xmlns="http://www.w3.org/2000/svg" viewBox="0 0 101.31 99.59">
  <defs>
    <style>
      .cls-1 {
        fill: #8bbe30;
      }

      .cls-2 {
        fill: #143d1f;
      }

      .cls-3 {
        fill: #114d2f;
      }

      .cls-4 {
        fill: #387d32;
      }

      .cls-5 {
        fill: #194d24;
      }

      .cls-6 {
        fill: #48a135;
      }

      .cls-7 {
        fill: #3d9536;
      }

      .cls-8 {
        fill: #82bb26;
      }

      .cls-9 {
        fill: #72b62b;
      }

      .cls-10 {
        fill: #60b22f;
      }

      .cls-11 {
        fill: #174520;
      }

      .cls-12 {
        fill: #368133;
      }

      .cls-13 {
        fill: #72b62e;
      }

      .cls-14 {
        fill: #1d6732;
      }

      .cls-15 {
        fill: #62ac30;
      }

      .cls-16 {
        fill: #a8c82e;
      }

      .cls-17 {
        fill: #8ebf2b;
      }

      .cls-18 {
        fill: #58ae31;
      }

      .cls-19 {
        fill: #2a6f30;
      }

      .cls-20 {
        fill: #a9c82b;
      }

      .cls-21 {
        fill: #6eb52c;
      }

      .cls-22 {
        fill: #8cbe23;
      }

      .cls-23 {
        fill: #267a33;
      }

      .cls-24 {
        fill: #7ab92f;
      }

      .cls-25 {
        fill: #469134;
      }

      .cls-26 {
        fill: #216131;
      }

      .cls-27 {
        fill: #4a9534;
      }

      .cls-28 {
        fill: #3e8f35;
      }

      .cls-29 {
        fill: #5ba731;
      }

      .cls-30 {
        fill: #348133;
      }

      .cls-31 {
        fill: #2b7331;
      }

      .cls-32 {
        fill: #1e5d2a;
      }
    </style>
  </defs>
  <path class="cls-29" d="M75.55,24.66c.51-.49.81-.14.9,1.05,1.13.07,1.82.28,2.66,1.31l.43.04c.63-.39,1.22-.28,1.76.33.99-.06,2.67.09,3.17,1.3.66.08,1.35.21,1.9.69l.16.42c.34-.46.81-.65,1.42-.58l.8-1.68c.29-.15.4-.05.29.32-2.15,4.84-4.3,9.72-6.44,14.53-.44.32-.8.73-1.07,1.24-.27.18-2.58-.05-2.75-.76l-1.71-.71c-.6.39-1.02.29-1.25-.3-.8-.1-1.45-.44-1.96-1.03-.77-.05-1.11-.44-1.58-1.11h-.37c-1.1.74-2.1-.33-2.53-1.53-.14.06-.21-.03-.29-.21.03-.21.06-.42.1-.62s.09-.4.16-.57c1.12-2.65,2.3-5.26,3.57-7.8.08-.17.2-.32.32-.46s.25-.28.38-.41c.29-1.33,1.03-2.64,1.9-3.47Z"/>
  <path class="cls-3" d="M43.06,77.33l.21.29-.05,2.87c-.05,1.98.18,1.94.67-.11,1.04-.29,2.13-.37,3.27-.23.67-.5,1.18-.13,1.53,1.1.99,3.25,2.43,6.03,4.33,8.35l2.45-.05c-.31-1.79.37-2.04,1.59-1.64.43.21,3.46.91,3.53.43-.1-.58-.13-1.19.31-1.53l.23.34c.21,1.45.07,3.71-.54,4.99-1.67,6.12-7.42,8.23-12.03,7.2-.04-.31.51-.03.02-.1-1.41-.23-2.48-1.27-3.23-2.78-2.15-4.35-2.41-9.97-2.58-14.98-.02-.55-.09-4.05.05-4.17.07-.06.17-.02.25.03Z"/>
  <path class="cls-9" d="M84.94,11.46c.65-.59,1.18-.43,1.13.68.67.15,1.3.49,1.89,1,.77,0,1.39.28,1.87.85.92.18,1.58.36,1.58,1.74.9,1.54,2.32.07,3.04-1.01.1-.49.37-1.17.72-.61-2.03,4.57-4.1,9.18-6.12,13.73-.17-.37-.2-.04-.26.13-.14.36-.52,1.03-.55,1.11-.06.18,0,.47-.03.5s-.16-.11-.26-.11c-.19,0-.79.08-.93.14-.21.07-.36.56-.55.51-.16-.05-.21-.57-.29-.64-.04-.03-.78-.35-.9-.39-.22-.08-.82-.07-.95-.2-.07-.07-.08-.36-.18-.5s-1.61-.76-1.82-.77c-.43-.03-.7.22-1.24-.04-.28-.14-.42-.51-.64-.53-.32-.04-.69.43-1.35.24-.35-.1-.92-1-1.31-1.14s-1.18.05-1.55-.28c-.17-.15.16-1.45-.69-1.22.03-.18.07-.36.13-.53s.1-.34.18-.48c1.31-2.25,2.65-4.47,4.14-6.54l.72-.59c.04-.16.09-.31.15-.46.34-.84,3.02-4.06,3.71-4.45.12-.07.24-.12.37-.16Z"/>
  <path class="cls-16" d="M73.13,8.79C80.7,1.39,91.42-.82,100.82.26c.17.02.31.1.47.14.08.28-.18.32-.21.4-.74-.14-1.54.2-2.27.54-4.76,2.25-9.28,5.7-13.26,9.82l-.61.3c-1.47,1.57-2.9,3.29-4.22,5.07-.62.89-1.95.76-1.39-.67,1.32-1.78-.84-1.84-1.85-1.6l-.65-.43c-.7.5-1.49.59-2.39.29-1.16.32-2.03-.03-2.61-1.05-.8-.18-1-1.44-.53-2.17.2-.31.53-.69.66-.18.36-.67.75-1.32,1.17-1.93Z"/>
  <path class="cls-12" d="M64.47,50.13c.36-.9.75-.03.99.53,1.01.35,2.08.49,3.2.42.44.1,1.79.74,2.02,1.2.15.3.14.48-.02.75.39.15.6.54.64,1.18.59-.02,1.13.13,1.61.45.56-.15,1.1.07,1.6.65.26.09,2.87-1.51,2.88-2.35.16-.21.5-.57.69-.3-.65,1.47-1.23,3.01-1.88,4.49-.49,1.11-2.74,6.51-3.18,6.98-.48.95-.88,1.53-1.59,2.21-.34.32-1.31,1.19-1.65,1.41-.52.33-.76.15-1.22-.2-.78-.82-1.6-1.46-2.48-1.91-.37-.59-.95-.91-1.74-.96-1.32.04-2.75-.48-3.63-1.77-.16.4-.43.67-.82.8l-.73,2.21c-.15.25-.28.22-.38-.06-.08-.12-.16-.24-.23-.38-.36-.74-1.19-5.11-1.12-5.96.01-.16.04-.31.08-.47-.11-.92,2.1-.31,2.41-.09.5,1.09.88.35,1.26-.45,1.08-2.66,2.08-5.37,2.97-8.15l.33-.26Z"/>
  <path class="cls-4" d="M37.36,52.8c-.15-.18-.3-.37-.41-.6-.53-2.01-1.16-3.97-1.88-5.89-.02.31-.15.57-.35.76-.18.64-.42.93-.94.57-.48-1.95-2.48-.08-3.19.79-.44.47-.95.67-1.52.77l-.4,1.81c-.11.72-.39,1.11-.87,1.5-.53,1.6-1.1,2.19-2.52,2.38-.42-.24-.61-.22-1.06-.17-.21-.5-.4-.83-.58-.98-1.55-3.51-3.09-7.03-4.64-10.53.32-.07.68,0,1.08.19l1.64.22c.59.4,1.2.12,1.83-.85.41.04,2.54-1.52,2.6-1.69,0-1.89,1.02-3.53,2.14-4.64.26-.89.9-1.21,1.91-.96.17-.51.38-.82.7-.28l.34.42c1.3,2.94,2.53,5.93,3.67,8.99l.29-2.14.24-.2c.41-.86,1.23-2.09,1.76-.71.3-.85.71-1.4,1.22-1.65.68-.73.66-7.94.62-9.44.02-.22.09-.42.19-.6.11.46.2,1.18.22,1.66.18,4.55-.26,9.49-.88,13.97-.34,2.45-.78,4.89-1.24,7.31Z"/>
  <path class="cls-25" d="M69.12,38l.53-.13c-.14.75.21.7.42,1.01.12.18.05.36.24.5.12.09.84.37.98.36.25,0,.41-.22.64-.27.81-.16.63.45,1.13.82.36.27.64.15.92.31.12.07.23.35.38.45.48.32,1.08.38,1.55.57.22.09.14.62.64.51.18-.04.28-.29.51-.25.17.03,1.65.63,1.84.76.29.2.38.52.76.64.58.18,1.22-.08,1.8.19-.03-.58.75-.99,1.16-1.07-1.51,3.42-3.03,6.85-4.54,10.27l-.53.46c-.36,1.08-1.18,1.45-1.9,1.87-.29.17-.82.62-1.1.6-.42-.03-.74-.66-1-.73-.17-.05-.44.12-.69.06-.21-.04-.4-.31-.66-.37-.31-.07-.74.06-.98-.1-.29-.18-.14-.69-.3-.95s-.52-.16-.54-.19c-.12-.15.23-.59.21-.72-.08-.44-1.57-1.2-1.96-1.26-.79-.12-2.69.11-3.31-.49-.25-.24-.27-1.2-.85-.73-.3-.15-.12-.96.21-.93.12-.62.24-1.25.45-1.84.84-2.31,1.74-4.61,2.68-6.86.24-.57.56-1.07.88-1.57-.17-.42.06-.9.42-.93Z"/>
  <path class="cls-27" d="M25.44,24.13c1,1.05,1.81,2.58,2.22,4.13,1.4,1.97,2.56,4.44,3.27,6.93-.56-.22-.36.41-.59.52s-.74-.02-1.04.02c-.83.1-.48.36-.83.89-.08.12-.31.25-.45.44-.97,1.34-1.57,2.2-1.68,4.14-.88.64-1.66,1.61-2.69,1.8-.46.39-.84,1.22-1.43,1.14-.23-.03-.35-.23-.53-.27-.93-.19-1.82-.04-2.68-.67-1.74-3.93-3.52-7.91-5.27-11.87-.07-.78.42-.21.6.24,1.63,2.32,2.75,1.08,4.25-.65l2.29-1.65c1.34-.98,2.4-2.38,2.76-4.33.11-.22,1.25-1.08,1.52-1.02l.3.21Z"/>
  <path class="cls-26" d="M58.78,65.87s.13.07.21-.1c.21-.44.52-2,.79-2.31.15-.17.38-.09.53-.26.17-.2.21-1.07.56-.45.44.78.78.8,1.46,1.22,1.01.63.96.28,1.97.44.21.03,1.35.4,1.51.49.26.16.28.46.37.53.13.1.44.08.68.27.53.42,1.96,2.01,2.51,1.98.22-.01.7-.6.93-.78.91-.71,1.52-1.1,2.23-2.12.25-.36.24-.4.48-.65-3.4,7.92-6.94,15.75-10.44,23.6-.19.1-.28.01-.3-.24.39-7.16-1.55-14.17-3.43-20.82l-1.29,3.78-.25.08c-.4-.2-.57-.69-.42-1.2-.1-.33.07-.61.52-.84.25-.92.62-1.77,1.08-2.56l.29-.06Z"/>
  <path class="cls-1" d="M73.13,8.79l-.23.71c-.41.55-.52,1.06-.94,1.63-.08.1-.09.32-.1.33-.38.41-.08-.76-.1-.8-.09-.14-.45.4-.46.44-.04.14.02,1.35.05,1.41.02.04.47.22.61.36.2.2.25.49.49.71.66.6,1.24.25,1.99.28.52.02,1.13.27,1.68.14.23-.06.29-.31.45-.37.56-.23.64.33.93.38.24.04.6-.16.94-.14.26.01,1.46.35,1.53.62.01.04-.08.82-.1.91-.11.41-.41.56-.47.86-.17.91.9.57,1.32.28-1.89,2.56-3.57,5.3-5.17,8.13-.65,1.15-1.29,2.28-1.9,3.47-.75.69-.79-.4-.24-.98-.5-.58-1.17-.92-2.01-1.03-.91-.85-1.82-.93-2.93-.88-1.21-.09-3.53-1.31-2.99-3.17l-.06-.21c2.39-5.82,3.48-8.94,7.7-13.07Z"/>
  <path class="cls-15" d="M21.01,17.33c.73.37,1.59,1.44,1.79,2.4.11.05.21.11.31.19.45.36,2.11,3.13,2.26,3.79.03.14.05.28.07.42-.22.08-.58.06-.77.16-.16.09-.16.3-.25.38-.16.12-.43.09-.57.32-.13.21-.12.63-.23.91-.74,1.88-1.15,2.34-2.51,3.49-.76.64-1.68,1.14-2.41,1.75-.57.48-1.59,1.95-2.16,1.93-.25,0-1.13-.12-1.33-.2-.46-.17-.93-.94-1.2-1.42-.07-.13-.1-.5-.27-.12-1.2-2.7-2.39-5.44-3.59-8.13.06-.46.43-.44,1.12.05.58-.16,1.14-.19,1.69-.1l.85-1.4c1.32-1.2,2.79-2.52,4.22-3.57.83-.61,2.08-1.45,2.99-.85Z"/>
  <path class="cls-17" d="M31.88,11.73c.28.52.59,1.03.92,1.52-.05,1.02-.68.38-1.03-.02-.72.79-1.55,1.38-2.49,1.75-.89.95-1.84,1.81-2.84,2.6-.55,1.34-1.53,1.92-2.93,1.72-.14.48-.33.89-.7.42-.57-.86-1.21-1.6-1.79-2.4-.81-.67-1.54-1.52-2.2-2.54-.72-.76-1.33-1.6-1.81-2.53-.11-.61-.43-1.11-.96-1.51-.27-.27-.59-.92-.39-1.33.07-.13,2.12-.77,2.4-.85,1.69-.24,4.21-.67,5.13-2.75.02-.04.05-.16.03-.2-.3-.32-.65-.9-.41-1.36,3.64,1.95,6.26,3.92,9.07,7.47Z"/>
  <path class="cls-13" d="M65.42,21.86c.45-.04-.01.6.16,1.06.05.13.8,1.2.9,1.26.13.08,1.35.69,1.44.71.86.2,1.75-.07,2.69.33.25.11.49.44.79.6.55.29,2.28.39,2.22,1.43-.01.18-.96.97.03.86-1.66,3.23-3.11,6.47-4.54,9.87-.13.31-.29.62-.42.93-.43.79-.91.51-1.44-.85-.57-.36-1.19-.6-1.88-.72-.96-.72-1.83-.95-2.93-.96-.98-.44-1.71-2.45-1.35-3.73,1.44-3.6,2.86-7.22,4.33-10.8Z"/>
  <path class="cls-24" d="M33.56,14.13c-.01.31-.1.04-.09.05,1.43,2.77,2.21,5.89,2.64,9.16.01.1,0,.21-.03.32s-.06.23-.1.34c.07.38-.78.64-1.02.65-1.09-.55-1.99.08-2.7,1.08-.21-.16-.4-.25-.56-.28-.78,1.45-1.88,1.91-3.14,2.38-.2.73-.37,1.14-.9.44-.71-1.39-1.45-2.79-2.22-4.13-.84-1.48-1.71-3.01-2.64-4.4.45.18.46-.63.6-.67.41-.12,1.09.01,1.62-.19,1.13-.43.91-1.13,1.42-1.68s1.33-.98,1.88-1.49c.33-.3.55-.73.9-1,.48-.36,1.08-.43,1.57-.82.29-.23.79-1.05,1.13-.94.08.03.42.84.7.52.2-.23-.82-1.32-.74-1.73.71.9,1.08,1.42,1.69,2.4Z"/>
  <path class="cls-22" d="M84.94,11.46c3.48-3.73,7.85-7.25,12.06-9.49.82-.44,2.58-1.38,3.39-1.45.16-.01.79-.15.69.27-1.84,4.54-3.95,8.92-5.91,13.33-.54.02-.34.39-.57.81-.26.48-1.46,1.68-1.91,1.73-.36.04-1.07-.12-1.32-.47-.28-.39-.15-.81-.29-1.24-.21-.64-.9-.49-1.34-.71-.31-.16-.32-.48-.58-.59-.36-.16-.91-.1-1.28-.25-.32-.14-.76-.61-1.16-.8-.2-.1-.81-.17-.84-.21-.15-.21.32-1.43-.95-.93Z"/>
  <path class="cls-20" d="M21.54,3.59c.14.22.79.72,1.05.53.08.04.15.1.21.13.12.21.19.61.27.79.14.32.45.32.32.81s-1.27,1.66-1.66,1.92c-1.22.82-2.25.72-3.52,1.02-.61.15-1.23.45-1.83.62-.38.11-.8-.16-.5.7.15.42.88.95.98,1.16.02.05.54,1.17.12.98-.91-.46-2-1.49-2.53-2.53-.25-.09-.51-.18-.73-.37C9.71,5.85,5.7,2.48,1.04.87c-.28-.1-.61-.18-.81-.08-.03-.08-.29-.12-.21-.4.75-.22,1.51-.08,2.27-.14,6.69-.52,12.97.35,19.25,3.34Z"/>
  <path class="cls-19" d="M23.65,53.73c.31-.42.31.59.55.71.23.12.44-.09.65-.05.15.03.25.21.35.24.07.02,1.38-.42,1.48-.47.5-.27.62-1.32.97-1.84.17-.25.45-.36.58-.6.24-.47.6-2.64.69-2.73.13-.13.68-.16.92-.3,1.16-.68,1.58-2.14,3.26-2.15.86,0,.67.87.85.93.43.13.53-.05.77-.41.06.31.08.62.05.93l-2.2,10.76c-.67,3.38-1.27,6.79-1.55,10.26.06.47-.13.96-.42.45-2.31-5.24-4.65-10.49-6.96-15.73Z"/>
  <path class="cls-8" d="M14.47,9.73c.35.53.05,1.59-.48,1.81-1.46.09-2.95.93-3.14,2.94-.23.62-1.62,1.38-2.2,1.42-.55.98-1.24.31-1.73-.37-.23-.51-.5-.98-.79-1.4-.24-.34-.42-.77-.61-1.16C3.65,9.09,1.93,4.81.23.79c-.08-.4.32-.3.48-.27,1.38.25,3.83,1.65,5.15,2.42,3.12,1.83,5.9,4.14,8.61,6.78Z"/>
  <path class="cls-21" d="M14.47,9.73c.87.85,1.69,1.6,2.53,2.53,1.46,1.62,2.7,3.27,4.01,5.07-.45.06-1.13.05-1.54.26-1.46.73-2.72,1.91-3.98,3.04-.41.37-.94.52-1.45,1.17-.23.29-.84,1.5-.97,1.58-.22.13-.5-.08-.76-.05-.47.05-.79.34-1.35.11-.26-.11-.31-.54-.81-.24-1.34-3.02-2.81-5.95-4.01-9.07.01.01.13-.04.19.03.39.56,1.19,2.19,1.85,1.95.18-.07.26-.37.39-.44.19-.11.42-.03.63-.14.15-.09,1.32-.86,1.38-.92.16-.18.1-.74.23-1.05.03-.07.54-.97.61-1.09.36-.57,1.22-.88,1.79-1.07.27-.09.67,0,.89-.18.29-.23.35-1.08.39-1.48Z"/>
  <path class="cls-5" d="M34.72,47.06c.08-.44.15-.89.21-1.33.03-.04.12.08.16.13.59.98,1.66,4.93,2.07,6.29.03.11.34.21.2.64-.57,3.98-1.37,7.89-1.95,11.86-.65,4.43-1.31,8.94-1,13.47l-2.97-6.58c-.3-.64-.54-1.45-.83-2.09.33.07.19-.21.21-.47.56-7.13,2.65-14.86,3.91-21.94Z"/>
  <path class="cls-18" d="M68.69,38.93c-1.4,3.37-2.73,6.83-4.01,10.27-.28.65-.55-.13-.7-.56-1.24-.88-2.58-1.56-4.01-2.03-.55-.52-1.11-.95-1.68-1.28-.3.38-.64.56-.58-.13-.3-.14-.23-1.04.11-1.07l-.07-.41c.41-2.34.96-4.61,1.65-6.79.57-1.42,1.12-2.85,1.69-4.27.22.51,0,.85.16,1.46.12.43.7,1.76,1,1.94s1.31.11,1.8.26.95.59,1.39.78c.5.22,1.59.3,1.94.75.31.4.65,1.87,1.31,1.07Z"/>
  <path class="cls-7" d="M44.32,39.06c2.33,5.55,4.74,11.14,7.09,16.72.08.19.04.42.3.35l.14.05c.45,1.36,1,2.7,1.55,4.02l-.11.33c.26.78-.23.84-.75.72l-.96-.32c-.81.16-1.25.08-1.27-1.06-1.25-.35-2.53-.58-3.83-.68l-.85-.33c-.28.45-.53.97-.74,1.56-.7,1.03-.87.12-.79-.82-.1-.1-.2-.22-.22-.38-.1-.56.15-3.53.23-4.3l.2-.39c.06-.33.01-.56-.16-.69.29-4.15.25-8.59-.05-12.83v-1.77s.21-.19.21-.19Z"/>
  <path class="cls-31" d="M56.98,43.06c.36-.42.57.33.45.78.22-.03.35.06.39.28-.07.4-.05.76-.11,1.07l.1.69c-.71,4.13-.78,8.33-.19,12.49l-.12.68c.32,2.31.79,4.54,1.27,6.8-.26.46-.57.99-.78,1.48-.17.4-.2.94-.44,1.32-.27.42-.66.22-.68.67-.11-.12-.21-.25-.3-.39s-.18-.27-.24-.43c-1.04-2.45-2.07-4.93-2.99-7.44l-.06-.55c-.44-1.12-1.24-2.92-1.53-4-.04-.13-.06-.26-.05-.4,1.52-3.95,3.18-7.82,4.75-11.73.27.07.34-.11.21-.53.11-.27.21-.53.32-.8Z"/>
  <path class="cls-11" d="M43.48,67.2c.33.19.27.81,0,1.07.04.19.08.38.1.58s.04.38.03.57c-.1,2.26-.21,4.53-.33,6.78-.02.39-.12.77-.23,1.14-.17.14-.11.51-.11.73-.05,5.48.16,14.51,2.96,18.93.82,1.3,1.63,1.78,2.9,2.2l-.26.13c-4.14-.92-5.58-3.65-6.7-8.53-1.76-7.68-1.29-16.37-1.11-24.27l.11-1.73c0-.35,0-.71,0-1.07.24-.11.38.09.43.58-.06,1.46,1.04,2.37,2.05,2.65l.16.24Z"/>
  <path class="cls-28" d="M33.56,14.13c2.38,3.86,5.52,10.83,5.7,15.73.1,2.83.06,6.21-.33,8.99-.05.34-.16,1.09-.37,1.27-.14.12-.36.09-.52.28-.17.21-.57,1.62-.9,1.41-.2-.13-.18-.67-.57-.62-.33.04-.7.99-1.11,1.07l-.08-.46c.64-5.59,1.19-11.27.5-16.91l.1-.9c-.46-3.52-1.16-6.44-2.49-9.59-.08-.2-.32-.3.06-.28Z"/>
  <path class="cls-30" d="M44.32,39.06v1.93c.38,3.58.14,7.21.22,10.81l-.22,2.73c-.12-.05-.22-.17-.28-.36-1.05.58-1.27.53-1.68-.86l-.4-2.13c-.19.04-.4.05-.43-.23,0-.82-.05-1.62-.16-2.42,0-4.28.1-8.6-.21-12.87-.14-1.94-.44-3.87-.63-5.8l2.59,6c.47,1.01.79,2.19,1.21,3.2Z"/>
  <path class="cls-2" d="M62.43,87.17c-.65,1.46-1.17,3.09-2,4.4.46-1.69.39-3.62.32-5.33l-.24-.63c-.17-3.44-.82-6.8-1.78-10.01l.02-.69c-.78-1.4-1.35-3.25-1.58-4.93l1.48-4.4c.21.12.29.54.36.81,1.7,5.89,3.76,13.85,3.35,20.11-.02.26-.06.46.08.69Z"/>
  <path class="cls-32" d="M41.37,48.53c.3.33.24,2.32.32,2.4.04.05.33-.1.44.08.08.14.35,1.93.46,2.32.51,1.76.84.56,1.46.57.37,0,.27.3.28.63.06,1.67-.3,3.41-.21,5.07-.05.41,0,.77.13,1.09l-.45,6.31c-.03.25-.12.29-.32.2-.63.25-2.11-1.14-2.27-1.73-.14-.51-.05-1.28-.36-1.74.06-2.84.24-5.69.32-8.53l.11-2.13c0-.27,0-.53,0-.8l.11-2.67c0-.36,0-.71,0-1.07Z"/>
  <path class="cls-14" d="M43.48,68.27c.73-1.6,1.66-1.04,1.97.64.32,1.56.74,3.05,1.28,4.48.04-.39.21-.48.48-.56.14-.04,2.69.08,2.86.13.76.24.98.67.86,1.65,1.48.23,2.96.29,4.44.19,1-1.35,2.35-1.27,3.05.45.21.03.36.1.46.23,1.18,3.94,1.81,7.07,2,11.33.1.31-.16.58-.18.76-.04.38.32.99-.24,1.19-.17.06-.93-.08-1.22-.09-1.03-.02-.82-.1-1.71-.36-.27-.08-1.35-.34-1.55-.3-.76.17-.11,1.59-.37,1.8l-2.67.03c-.29-.25-.51-.61-.76-.91-1.9-2.25-2.49-4.62-3.67-7.49-.07-.18-.57-1.25-.62-1.28-.15-.11-.44.22-.67.26-.59.1-3.05-.27-3.28.26-.09.21-.02.5-.08.7-.16.51-.72,1.52-.82.44-.11-1.25,0-3.15,0-4.47.03-3.05.23-6.05.42-9.07Z"/>
  <path class="cls-6" d="M57.72,45.2c.18.54.3-.11.58-.14.49-.05,1.01.78,1.38,1.05.95.7,1.69.73,2.57,1.15.31.15,1.47.83,1.72,1.02.45.36.2,1.01.7.92-.1.26-.14.74-.21.93-.95,2.56-2.1,6.42-3.19,8.7-.17.36-.57,1.07-.92.98-.44-.11-.47-.58-.63-.67-.2-.12-.45-.03-.66-.1-.57-.17-.93-.46-1.55.03-.71-5.21-.66-8.71.21-13.87Z"/>
  <path class="cls-10" d="M35.46,42.26c-.13.87-.23,2.07-.42,2.87-.15.63-.23-.11-.3-.3-1.25-3.28-2.42-6.45-3.82-9.64-1.03-2.36-2.11-4.67-3.27-6.93.76.28.48-.03.69-.53.17-.41,1.39-.53,1.83-.88.09-.07.89-.83.93-.89.2-.26.27-.96.91-.77.09.03.06.25.07.26.21.2.19-.19.28-.26.22-.18.73-.7.77-.73.49-.32,1.34-.39,1.84-.07l1.01-.4c.81,6.17.36,12.16-.53,18.27Z"/>
  <path class="cls-23" d="M44.11,59.6c.02.4-.03.77.26,1.06.56-.43.6-1.1.87-1.69.34-.72.63-.2,1.15-.07,1.19.29,2.48.11,3.51.64.16.08.43.02.54.12.2.17.03.85.29,1.01s.65-.04.91,0c.41.08,1.72.85,1.65-.14,1.15,2.95,2.48,5.83,3.59,8.8.14.39.28.8.42,1.2.58,1.61,1.09,3.28,1.58,4.93-.96.51-.8-1.27-1.74-1.34-.24-.02-.86.12-1.08.24-.26.15-.41.58-.63.67-.86.34-2.42-.04-3.35-.1-.47-.03-.95.02-1.42,0,.49-2.24-.99-1.68-2.17-1.73-.26-.01-1.45-.36-1.53.08-.21,1.13.87,1.47.11,2.44-.28-.74-.34-1.53-.55-2.3-.12-.41-.33-.77-.45-1.17-.35-1.22-.73-3.41-1.23-4.44-.34-.7-.93.24-1.36.45.02-.35-.02-.72,0-1.07,0-.04.14-.2.11-.32l.52-7.28Z"/>
</svg>