<?xml version="1.0" encoding="UTF-8"?>
<svg id="Capa_1" data-name="Capa 1" xmlns="http://www.w3.org/2000/svg" viewBox="0 0 553.74 522.34">
  <defs>
    <style>
      .cls-1 {
        fill: #114d2f;
      }

      .cls-2 {
        fill: #267b34;
      }

      .cls-3 {
        fill: #8bbe31;
      }

      .cls-4 {
        fill: #4b9434;
      }

      .cls-5 {
        fill: #81ba27;
      }

      .cls-6 {
        fill: #2d7431;
      }

      .cls-7 {
        fill: #459034;
      }

      .cls-8 {
        fill: #a7c72d;
      }

      .cls-9 {
        fill: #368133;
      }

      .cls-10 {
        fill: #1f5e2b;
      }

      .cls-11 {
        fill: #194522;
      }

      .cls-12 {
        fill: #194c25;
      }

      .cls-13 {
        fill: #79b730;
      }

      .cls-14 {
        fill: #58ae31;
      }

      .cls-15 {
        fill: #216232;
      }

      .cls-16 {
        fill: #3d9336;
      }

      .cls-17 {
        fill: #a7c72e;
      }

      .cls-18 {
        font-family: BerlinSansFB-Reg, 'Berlin Sans FB';
        font-size: 154.74px;
      }

      .cls-18, .cls-19 {
        fill: #1d6832;
      }

      .cls-20 {
        fill: #163c21;
      }

      .cls-21 {
        fill: #71b52e;
      }

      .cls-22 {
        fill: #8ebf2d;
      }

      .cls-23 {
        fill: #8cbe27;
      }

      .cls-24 {
        fill: #71b52f;
      }

      .cls-25 {
        fill: #63ac30;
      }

      .cls-26 {
        fill: #60b133;
      }

      .cls-27 {
        fill: #5ba731;
      }

      .cls-28 {
        fill: #f2921d;
        font-family: BerlinSansFBDemi-Bold, 'Berlin Sans FB Demi';
        font-size: 78.85px;
        font-weight: 700;
      }

      .cls-29 {
        fill: #479f35;
      }

      .cls-30 {
        fill: #6eb42c;
      }

      .cls-31 {
        fill: #358134;
      }

      .cls-32 {
        fill: #3a7e32;
      }

      .cls-33 {
        fill: #3e8e35;
      }

      .cls-34 {
        fill: #2a7031;
      }
    </style>
  </defs>
  <text class="cls-28" transform="translate(0 506.21) scale(.98 1)"><tspan x="0" y="0">SOLAR ENERGY</tspan></text>
  <g>
    <path class="cls-27" d="M356.59,108.29c2.18-2.15,3.48-.61,3.88,4.63,4.88.29,7.82,1.24,11.45,5.75l1.85.19c2.7-1.7,5.23-1.22,7.59,1.46,4.25-.26,11.49.4,13.62,5.69,2.82.34,5.81.91,8.18,3.02l.69,1.85c1.46-2,3.5-2.86,6.12-2.57l3.45-7.38c1.25-.68,1.71-.24,1.25,1.4-9.23,21.24-18.51,42.7-27.68,63.82-1.91,1.4-3.45,3.21-4.61,5.42-1.18.8-11.11-.23-11.85-3.35l-7.34-3.1c-2.58,1.71-4.37,1.28-5.37-1.31-3.42-.44-6.24-1.94-8.44-4.51-3.31-.23-4.77-1.95-6.78-4.85l-1.58.02c-4.73,3.25-9.03-1.48-10.88-6.73-.6.25-.92-.13-1.23-.9.11-.92.24-1.83.44-2.72s.39-1.75.71-2.52c4.81-11.63,9.9-23.1,15.37-34.24.37-.74.86-1.39,1.36-2.03.51-.65,1.06-1.24,1.63-1.82,1.26-5.84,4.42-11.59,8.17-15.22Z"/>
    <path class="cls-1" d="M216.84,339.57l.89,1.26-.23,12.6c-.2,8.69.75,8.53,2.87-.48,4.48-1.29,9.16-1.63,14.05-1.01,2.87-2.18,5.06-.58,6.58,4.82,4.24,14.27,10.46,26.49,18.64,36.66l10.55-.24c-1.32-7.85,1.57-8.96,6.83-7.21,1.84.92,14.87,3.98,15.17,1.88-.44-2.56-.55-5.22,1.34-6.71l.97,1.51c.91,6.38.28,16.3-2.33,21.91-7.17,26.89-31.93,36.13-51.73,31.62-.19-1.34,2.18-.11.09-.46-6.09-.99-10.68-5.58-13.9-12.22-9.27-19.1-10.36-43.76-11.09-65.76-.08-2.41-.39-17.76.21-18.31.3-.27.74-.07,1.1.13Z"/>
    <path class="cls-21" d="M396.98,50.32c2.81-2.6,5.06-1.87,4.86,3,2.89.67,5.6,2.14,8.14,4.41,3.31-.04,5.99,1.21,8.03,3.75,3.98.81,6.82,1.58,6.81,7.64,3.86,6.76,9.98.3,13.09-4.44.43-2.16,1.6-5.12,3.1-2.66-8.75,20.09-17.62,40.31-26.32,60.31-.72-1.61-.87-.16-1.14.56-.59,1.58-2.25,4.5-2.37,4.86-.26.79-.04,2.05-.13,2.2s-.69-.5-1.11-.48c-.8.04-3.38.36-4.01.6-.89.32-1.53,2.47-2.35,2.23-.69-.21-.9-2.5-1.24-2.8-.17-.15-3.34-1.53-3.87-1.73-.94-.36-3.52-.32-4.09-.86-.31-.29-.36-1.58-.79-2.2-.42-.59-6.93-3.33-7.82-3.39-1.87-.13-3,.98-5.32-.15-1.22-.6-1.82-2.23-2.75-2.35-1.36-.17-2.97,1.9-5.79,1.07-1.49-.44-3.95-4.4-5.63-5.02-1.63-.6-5.05.2-6.68-1.23-.73-.65.69-6.37-2.99-5.34.15-.79.31-1.57.54-2.32s.45-1.48.79-2.09c5.61-9.9,11.42-19.61,17.81-28.7l3.09-2.61c.18-.69.37-1.36.63-2,1.48-3.7,13-17.81,15.94-19.54.51-.3,1.04-.52,1.58-.71Z"/>
    <path class="cls-17" d="M346.16,38.61C378.73,6.09,424.85-3.62,465.27,1.14c.71.08,1.35.44,2.04.6.34,1.22-.77,1.42-.91,1.75-3.19-.6-6.63.88-9.74,2.39-20.46,9.89-39.92,25.04-57.04,43.13l-2.64,1.32c-6.32,6.92-12.49,14.45-18.15,22.25-2.66,3.92-8.41,3.32-5.99-2.93,5.67-7.83-3.62-8.08-7.98-7.03l-2.78-1.88c-3,2.18-6.42,2.61-10.27,1.28-4.97,1.43-8.72-.11-11.24-4.61-3.45-.8-4.3-6.34-2.3-9.52.86-1.36,2.28-3.04,2.85-.78,1.55-2.96,3.22-5.78,5.03-8.49Z"/>
    <path class="cls-9" d="M308.95,220.12c1.56-3.95,3.21-.12,4.24,2.32,4.34,1.55,8.93,2.16,13.76,1.86,1.91.42,7.7,3.27,8.7,5.29.65,1.3.59,2.1-.11,3.31,1.66.65,2.58,2.37,2.76,5.16,2.54-.1,4.85.56,6.93,1.99,2.42-.67,4.71.29,6.89,2.87,1.13.38,12.34-6.64,12.39-10.33.69-.93,2.16-2.49,2.97-1.33-2.8,6.47-5.28,13.24-8.09,19.72-2.12,4.89-11.77,28.61-13.69,30.64-2.04,4.19-3.79,6.73-6.86,9.7-1.45,1.4-5.64,5.22-7.11,6.17-2.22,1.43-3.26.67-5.24-.86-3.34-3.6-6.9-6.39-10.67-8.37-1.58-2.58-4.08-3.98-7.48-4.2-5.66.19-11.82-2.12-15.61-7.78-.69,1.77-1.87,2.94-3.53,3.52l-3.14,9.71c-.65,1.08-1.19.99-1.62-.27-.35-.53-.69-1.07-.97-1.66-1.57-3.25-5.13-22.43-4.81-26.16.06-.69.19-1.37.33-2.04-.48-4.04,9.04-1.36,10.34-.38,2.13,4.77,3.77,1.55,5.41-1.96,4.67-11.66,8.93-23.59,12.79-35.77l1.4-1.12Z"/>
    <path class="cls-32" d="M192.33,231.83c-.64-.79-1.31-1.64-1.78-2.65-2.3-8.83-4.99-17.45-8.08-25.85-.09,1.37-.63,2.48-1.48,3.32-.76,2.81-1.8,4.09-4.06,2.49-2.08-8.58-10.67-.34-13.72,3.47-1.91,2.08-4.09,2.93-6.53,3.37l-1.7,7.96c-.48,3.17-1.67,4.89-3.72,6.6-2.27,7.04-4.72,9.6-10.84,10.47-1.8-1.05-2.61-.96-4.57-.76-.9-2.19-1.74-3.63-2.5-4.32-6.66-15.4-13.3-30.87-19.97-46.26,1.37-.32,2.92-.03,4.66.85l7.07.97c2.52,1.77,5.15.53,7.89-3.73,1.76.16,10.93-6.68,11.2-7.42-.03-8.28,4.4-15.49,9.21-20.35,1.12-3.9,3.86-5.31,8.22-4.23.74-2.24,1.63-3.6,3.01-1.23l1.47,1.84c5.61,12.89,10.86,26.05,15.76,39.47l1.23-9.4,1.04-.88c1.75-3.79,5.3-9.17,7.59-3.12,1.29-3.72,3.03-6.13,5.24-7.24,2.91-3.21,2.84-34.87,2.68-41.45.11-.97.39-1.85.83-2.64.47,2.03.85,5.18.93,7.29.76,19.96-1.14,41.69-3.78,61.33-1.44,10.74-3.37,21.49-5.31,32.08Z"/>
    <path class="cls-7" d="M328.91,166.84l2.27-.58c-.6,3.28.92,3.09,1.81,4.43.51.77.22,1.58,1.03,2.2.51.4,3.61,1.61,4.21,1.6,1.09-.02,1.78-.98,2.74-1.17,3.47-.69,2.72,1.99,4.87,3.61,1.56,1.18,2.76.68,3.94,1.35.54.3,1,1.53,1.65,1.97,2.07,1.4,4.65,1.65,6.69,2.5.93.38.61,2.73,2.76,2.26.79-.17,1.21-1.27,2.19-1.1.73.13,7.12,2.76,7.92,3.32,1.25.86,1.65,2.29,3.28,2.79,2.51.78,5.24-.37,7.74.84-.12-2.55,3.22-4.33,5-4.69-6.51,15.01-13.01,30.07-19.51,45.08l-2.27,2.03c-1.53,4.72-5.06,6.35-8.17,8.22-1.23.74-3.52,2.71-4.73,2.63-1.79-.12-3.19-2.9-4.29-3.21-.74-.21-1.89.51-2.98.27-.9-.19-1.73-1.35-2.86-1.61-1.32-.31-3.16.25-4.21-.42-1.23-.79-.61-3.01-1.31-4.16-.67-1.12-2.22-.7-2.32-.82-.54-.66,1-2.61.91-3.18-.34-1.93-6.73-5.26-8.44-5.53-3.38-.53-11.57.49-14.22-2.14-1.09-1.08-1.18-5.25-3.65-3.19-1.28-.68-.5-4.2.91-4.1.51-2.73,1.04-5.5,1.95-8.06,3.61-10.14,7.47-20.26,11.51-30.13,1.02-2.5,2.41-4.71,3.79-6.89-.73-1.83.25-3.93,1.82-4.1Z"/>
    <path class="cls-4" d="M141.06,105.95c4.3,4.59,7.79,11.31,9.53,18.15,6.04,8.63,11.03,19.49,14.07,30.45-2.4-.96-1.53,1.8-2.55,2.27-.97.45-3.2-.08-4.48.08-3.58.43-2.08,1.6-3.55,3.91-.33.52-1.33,1.08-1.92,1.91-4.17,5.89-6.75,9.65-7.22,18.2-3.77,2.79-7.15,7.06-11.57,7.91-1.97,1.7-3.59,5.34-6.16,5-1-.13-1.52-1.03-2.29-1.19-3.98-.82-7.85-.18-11.54-2.96-7.48-17.27-15.16-34.75-22.69-52.11-.28-3.41,1.8-.92,2.59,1.03,7,10.2,11.84,4.76,18.26-2.84l9.84-7.25c5.78-4.29,10.31-10.46,11.87-19,.45-.97,5.39-4.76,6.53-4.47l1.28.92Z"/>
    <path class="cls-15" d="M284.45,289.21c.03-.05.56.29.9-.42.92-1.91,2.22-8.77,3.4-10.12.65-.75,1.63-.41,2.28-1.16.74-.86.92-4.7,2.42-1.97,1.87,3.41,3.37,3.5,6.28,5.36,4.35,2.78,4.15,1.22,8.49,1.92.89.14,5.82,1.74,6.5,2.15,1.14.68,1.22,2.01,1.6,2.33.55.45,1.88.36,2.93,1.21,2.28,1.85,8.45,8.82,10.8,8.68.95-.06,3-2.62,3.98-3.41,3.91-3.13,6.53-4.84,9.58-9.3,1.08-1.57,1.04-1.78,2.08-2.87-14.62,34.8-29.87,69.16-44.92,103.64-.83.45-1.22.06-1.29-1.04,1.66-31.45-6.69-62.22-14.74-91.43l-5.56,16.6-1.09.33c-1.71-.86-2.45-3.05-1.82-5.27-.43-1.46.32-2.7,2.24-3.71,1.09-4.03,2.65-7.77,4.66-11.25l1.27-.27Z"/>
    <path class="cls-3" d="M346.16,38.61l-.97,3.11c-1.76,2.41-2.25,4.67-4.03,7.14-.33.46-.39,1.39-.45,1.45-1.63,1.8-.33-3.33-.45-3.5-.4-.61-1.92,1.73-1.97,1.91-.17.63.1,5.93.23,6.19.08.17,2.04.96,2.64,1.58.87.89,1.09,2.17,2.12,3.12,2.86,2.62,5.35,1.09,8.58,1.23,2.24.1,4.87,1.19,7.23.6.98-.25,1.25-1.36,1.91-1.63,2.41-.99,2.75,1.44,4.01,1.66,1.01.18,2.57-.7,4.04-.61,1.12.06,6.3,1.54,6.56,2.72.04.19-.35,3.59-.45,3.98-.46,1.8-1.76,2.44-2,3.77-.72,3.99,3.86,2.5,5.67,1.24-8.14,11.22-15.37,23.29-22.23,35.72-2.79,5.06-5.54,10.01-8.17,15.22-3.24,3.02-3.41-1.74-1.04-4.32-2.17-2.54-5.05-4.04-8.63-4.52-3.91-3.71-7.83-4.08-12.61-3.86-5.2-.39-15.19-5.75-12.86-13.92l-.25-.9c10.27-25.58,14.96-39.24,33.12-57.38Z"/>
    <path class="cls-25" d="M122,76.09c3.15,1.61,6.85,6.32,7.71,10.54.46.24.91.5,1.32.83,1.95,1.56,9.06,13.76,9.74,16.64.14.6.22,1.22.29,1.85-.95.34-2.5.26-3.32.71-.68.38-.67,1.34-1.08,1.66-.7.54-1.83.42-2.44,1.39-.58.92-.52,2.77-.99,3.99-3.19,8.25-4.92,10.29-10.81,15.33-3.26,2.79-7.2,5-10.37,7.7-2.47,2.1-6.83,8.56-9.31,8.47-1.06-.04-4.84-.55-5.72-.88-1.98-.74-4-4.15-5.17-6.24-.31-.55-.43-2.21-1.17-.52-5.15-11.88-10.29-23.89-15.43-35.72.26-2.02,1.87-1.94,4.82.23,2.48-.69,4.9-.84,7.25-.45l3.64-6.17c5.7-5.29,11.98-11.05,18.16-15.66,3.59-2.67,8.93-6.35,12.86-3.71Z"/>
    <path class="cls-22" d="M168.74,51.49c1.22,2.3,2.54,4.53,3.97,6.68-.22,4.49-2.94,1.66-4.43-.08-3.09,3.49-6.65,6.05-10.71,7.68-3.83,4.16-7.9,7.97-12.22,11.42-2.36,5.89-6.56,8.42-12.61,7.57-.61,2.12-1.43,3.9-3.02,1.86-2.46-3.79-5.19-7.01-7.71-10.54-3.47-2.96-6.63-6.68-9.48-11.16-3.11-3.32-5.7-7.02-7.77-11.09-.46-2.67-1.83-4.88-4.13-6.63-1.16-1.17-2.55-4.06-1.69-5.82.29-.59,9.1-3.39,10.32-3.73,7.27-1.04,18.09-2.94,22.08-12.09.08-.19.2-.72.14-.88-1.27-1.4-2.78-3.97-1.77-5.99,15.65,8.57,26.93,17.22,39.02,32.79Z"/>
    <path class="cls-24" d="M313.03,95.99c1.92-.16-.06,2.63.68,4.67.2.56,3.44,5.28,3.88,5.55.56.34,5.81,3.02,6.21,3.11,3.68.86,7.54-.32,11.57,1.46,1.07.47,2.12,1.94,3.4,2.64,2.35,1.28,9.81,1.7,9.53,6.29-.05.79-4.12,4.25.13,3.8-7.13,14.17-13.36,28.43-19.51,43.33-.56,1.37-1.25,2.71-1.82,4.1-1.84,3.47-3.9,2.22-6.19-3.74-2.44-1.58-5.14-2.63-8.08-3.16-4.12-3.17-7.89-4.15-12.58-4.24-4.24-1.95-7.37-10.75-5.81-16.38,6.21-15.8,12.29-31.69,18.6-47.43Z"/>
    <path class="cls-13" d="M176,62.03c-.04,1.37-.41.16-.38.22,6.15,12.17,9.49,25.85,11.35,40.2.06.44-.02.92-.11,1.42s-.25,1.01-.42,1.49c.32,1.65-3.36,2.82-4.41,2.87-4.7-2.42-8.55.34-11.62,4.75-.92-.69-1.72-1.1-2.42-1.25-3.34,6.35-8.08,8.38-13.52,10.44-.85,3.18-1.61,5-3.89,1.93-3.06-6.12-6.24-12.24-9.53-18.15-3.62-6.49-7.36-13.2-11.34-19.32,1.92.78,1.97-2.77,2.57-2.95,1.77-.54,4.7.06,6.99-.82,4.86-1.87,3.89-4.97,6.09-7.37s5.73-4.32,8.1-6.53c1.4-1.3,2.36-3.22,3.87-4.38,2.07-1.59,4.63-1.9,6.73-3.61,1.25-1.02,3.42-4.62,4.86-4.14.34.11,1.79,3.69,2.99,2.27.85-1.01-3.55-5.79-3.17-7.61,3.06,3.94,4.65,6.22,7.26,10.54Z"/>
    <path class="cls-23" d="M396.98,50.32c14.96-16.36,33.78-31.83,51.87-41.68,3.51-1.91,11.09-6.05,14.58-6.36.69-.06,3.38-.66,2.97,1.2-7.91,19.92-16.98,39.18-25.41,58.55-2.32.1-1.48,1.71-2.46,3.55-1.13,2.12-6.29,7.38-8.2,7.6-1.56.18-4.62-.55-5.68-2.06-1.2-1.72-.63-3.57-1.24-5.43-.91-2.79-3.85-2.14-5.76-3.13-1.33-.69-1.38-2.11-2.49-2.61-1.54-.69-3.91-.42-5.49-1.12-1.38-.61-3.26-2.69-4.99-3.52-.87-.42-3.48-.74-3.6-.92-.66-.93,1.37-6.27-4.1-4.08Z"/>
    <path class="cls-8" d="M124.27,15.78c.6.94,3.38,3.17,4.54,2.34.35.19.64.44.91.59.53.94.8,2.67,1.15,3.47.62,1.4,1.93,1.39,1.39,3.58-.55,2.23-5.44,7.27-7.13,8.42-5.27,3.59-9.67,3.15-15.12,4.49-2.62.64-5.28,1.98-7.87,2.73-1.65.48-3.45-.7-2.14,3.07.65,1.86,3.78,4.17,4.22,5.09.1.2,2.34,5.13.53,4.29-3.93-2.01-8.62-6.53-10.89-11.12-1.09-.38-2.2-.78-3.14-1.62C73.4,25.7,56.16,10.91,36.1,3.83c-1.21-.43-2.6-.77-3.49-.35-.15-.36-1.24-.51-.91-1.75,3.21-.98,6.49-.34,9.75-.59,28.78-2.28,55.77,1.53,82.81,14.64Z"/>
    <path class="cls-34" d="M133.35,235.93c1.34-1.84,1.35,2.57,2.39,3.14.97.54,1.89-.39,2.8-.22.64.12,1.07.94,1.49,1.05.32.08,5.95-1.84,6.37-2.07,2.17-1.17,2.69-5.8,4.19-8.06.74-1.11,1.95-1.6,2.48-2.65,1.05-2.05,2.57-11.61,2.96-11.99.55-.55,2.91-.69,3.96-1.32,4.98-2.97,6.78-9.41,14.02-9.43,3.71-.01,2.87,3.82,3.65,4.06,1.83.58,2.29-.22,3.33-1.78.26,1.35.33,2.71.2,4.08l-9.44,47.26c-2.9,14.84-5.46,29.82-6.66,45.05.26,2.08-.58,4.21-1.8,1.97-9.92-23.03-19.99-46.06-29.95-69.09Z"/>
    <path class="cls-5" d="M93.87,42.71c1.51,2.33.22,7-2.07,7.95-6.28.38-12.69,4.07-13.48,12.92-.98,2.72-6.98,6.04-9.47,6.24-2.37,4.28-5.33,1.37-7.43-1.64-1-2.24-2.13-4.29-3.4-6.14-1.03-1.51-1.82-3.37-2.64-5.09-8.05-17.03-15.43-35.84-22.77-53.46-.35-1.75,1.36-1.31,2.05-1.19,5.92,1.1,16.49,7.24,22.17,10.64,13.42,8.04,25.39,18.19,37.04,29.78Z"/>
    <path class="cls-30" d="M93.87,42.71c3.73,3.71,7.29,7.03,10.89,11.12,6.28,7.13,11.59,14.37,17.24,22.25-1.93.25-4.87.24-6.62,1.12-6.3,3.2-11.68,8.39-17.11,13.34-1.78,1.63-4.06,2.28-6.24,5.13-.97,1.27-3.59,6.57-4.19,6.94-.95.59-2.16-.34-3.26-.22-2.02.23-3.4,1.51-5.82.5-1.12-.47-1.34-2.37-3.5-1.05-5.75-13.25-12.1-26.13-17.24-39.81.04.06.58-.19.8.13,1.66,2.47,5.14,9.63,7.95,8.55.77-.29,1.11-1.61,1.69-1.95.84-.49,1.82-.12,2.69-.62.66-.38,5.67-3.78,5.93-4.06.7-.77.43-3.25.99-4.6.13-.31,2.32-4.27,2.63-4.78,1.55-2.52,5.26-3.85,7.69-4.72,1.16-.41,2.88-.04,3.81-.8,1.26-1.03,1.49-4.75,1.66-6.49Z"/>
    <path class="cls-12" d="M180.99,206.66c.34-1.93.64-3.91.91-5.85.14-.19.52.33.67.59,2.52,4.29,7.13,21.63,8.89,27.64.15.5,1.46.9.86,2.81-2.45,17.46-5.89,34.65-8.41,52.1-2.8,19.46-5.61,39.26-4.3,59.15l-12.78-28.88c-1.31-2.83-2.34-6.37-3.55-9.18,1.44.33.81-.93.89-2.04,2.4-31.33,11.4-65.26,16.8-96.32Z"/>
    <path class="cls-14" d="M327.1,170.94c-6,14.79-11.74,29.97-17.24,45.08-1.2,2.87-2.38-.56-2.99-2.45-5.34-3.86-11.09-6.84-17.23-8.93-2.37-2.29-4.77-4.16-7.21-5.61-1.3,1.67-2.77,2.46-2.52-.57-1.3-.62-.98-4.57.45-4.68l-.28-1.8c1.77-10.28,4.13-20.22,7.09-29.82,2.43-6.23,4.82-12.52,7.26-18.74.95,2.23-.04,3.74.68,6.41.5,1.87,3.01,7.74,4.32,8.5,1.25.72,5.62.47,7.73,1.16,2.15.7,4.07,2.6,5.96,3.43,2.15.95,6.84,1.33,8.33,3.3,1.31,1.74,2.81,8.23,5.65,4.71Z"/>
    <path class="cls-16" d="M222.28,171.52c10.01,24.38,20.4,48.91,30.48,73.4.34.82.18,1.85,1.28,1.54l.59.2c1.92,5.95,4.31,11.87,6.67,17.67l-.45,1.45c1.1,3.42-.99,3.7-3.21,3.15l-4.11-1.4c-3.49.7-5.38.35-5.46-4.64-5.39-1.56-10.89-2.56-16.48-3l-3.66-1.44c-1.22,1.99-2.27,4.27-3.16,6.84-3,4.52-3.74.53-3.39-3.61-.42-.44-.84-.96-.96-1.66-.43-2.44.63-15.5.99-18.89l.88-1.7c.27-1.44.04-2.45-.68-3.03,1.25-18.2,1.05-37.71-.22-56.31v-7.76s.9-.81.9-.81Z"/>
    <path class="cls-6" d="M276.73,189.09c1.55-1.83,2.47,1.43,1.94,3.44.95-.15,1.51.26,1.69,1.24-.32,1.73-.23,3.34-.45,4.68l.44,3.03c-3.06,18.14-3.34,36.59-.82,54.86l-.53,3.01c1.36,10.15,3.38,19.94,5.45,29.86-1.12,2.01-2.45,4.34-3.36,6.5-.73,1.74-.86,4.15-1.88,5.77-1.16,1.86-2.84.98-2.93,2.95-.46-.55-.9-1.11-1.3-1.72-.39-.6-.76-1.21-1.04-1.88-4.45-10.75-8.9-21.63-12.84-32.66l-.24-2.39c-1.87-4.92-5.33-12.82-6.6-17.56-.15-.58-.24-1.14-.2-1.76,6.54-17.34,13.69-34.32,20.42-51.52,1.17.32,1.48-.47.91-2.34.46-1.18.9-2.34,1.36-3.51Z"/>
    <path class="cls-11" d="M218.65,295.07c1.42.82,1.17,3.54,0,4.68.18.84.35,1.69.45,2.55.1.84.18,1.68.14,2.51-.42,9.9-.9,19.88-1.42,29.77-.09,1.72-.53,3.37-.98,4.99-.75.61-.45,2.22-.46,3.21-.23,24.05.69,63.71,12.72,83.14,3.55,5.73,7,7.84,12.46,9.68l-1.13.58c-17.8-4.06-23.99-16.04-28.81-37.47-7.58-33.74-5.53-71.86-4.77-106.56l.45-7.61c0-1.56-.03-3.13,0-4.68,1.03-.48,1.64.38,1.84,2.57-.27,6.39,4.45,10.4,8.8,11.62l.7,1.03Z"/>
    <path class="cls-33" d="M176,62.03c10.22,16.96,23.74,47.57,24.5,69.09.44,12.42.24,27.25-1.41,39.46-.2,1.49-.68,4.79-1.58,5.57-.62.54-1.56.42-2.22,1.24-.74.92-2.46,7.12-3.88,6.17-.87-.58-.77-2.93-2.46-2.7-1.41.19-3.03,4.36-4.79,4.71l-.33-2.01c2.76-24.55,5.1-49.5,2.16-74.27l.45-3.94c-2-15.46-5.01-28.27-10.7-42.11-.36-.89-1.37-1.32.26-1.22Z"/>
    <path class="cls-31" d="M222.28,171.52v8.48c1.64,15.7.61,31.64.93,47.46l-.93,11.98c-.52-.21-.93-.74-1.23-1.6-4.53,2.54-5.46,2.34-7.24-3.77l-1.7-9.35c-.83.18-1.71.21-1.85-1.01.01-3.58-.22-7.12-.69-10.62,0-18.8.43-37.78-.91-56.5-.61-8.51-1.9-17-2.71-25.47l11.12,26.33c2.02,4.45,3.39,9.63,5.21,14.06Z"/>
    <path class="cls-20" d="M300.15,382.77c-2.81,6.43-5.04,13.55-8.62,19.32,1.98-7.43,1.69-15.89,1.36-23.42l-1.05-2.76c-.74-15.1-3.52-29.85-7.66-43.97l.09-3.04c-3.34-6.13-5.79-14.28-6.81-21.66l6.36-19.32c.92.54,1.24,2.39,1.56,3.54,7.32,25.85,16.15,60.81,14.43,88.28-.07,1.13-.26,2.01.34,3.03Z"/>
    <path class="cls-10" d="M209.58,213.1c1.28,1.46,1.05,10.18,1.36,10.54.19.23,1.43-.45,1.87.33.35.62,1.51,8.49,1.99,10.2,2.17,7.72,3.62,2.45,6.28,2.5,1.6.03,1.16,1.32,1.21,2.77.26,7.33-1.29,14.98-.91,22.25-.23,1.8-.04,3.4.57,4.81l-1.93,27.69c-.15,1.08-.54,1.26-1.36.88-2.69,1.1-9.09-5.02-9.77-7.59-.6-2.23-.21-5.61-1.57-7.64.27-12.48,1.04-24.99,1.36-37.47l.45-9.37c0-1.17,0-2.34,0-3.51l.45-11.71c0-1.56,0-3.13,0-4.68Z"/>
    <path class="cls-19" d="M218.65,299.75c3.16-7.01,7.14-4.57,8.48,2.79,1.37,6.84,3.2,13.39,5.5,19.65.16-1.7.91-2.13,2.07-2.48.6-.18,11.57.34,12.3.58,3.25,1.04,4.21,2.94,3.69,7.24,6.38,1.01,12.75,1.29,19.1.84,4.3-5.94,10.11-5.57,13.11,1.97.9.11,1.56.45,1.99,1.03,5.09,17.32,7.8,31.06,8.62,49.77.43,1.36-.69,2.55-.77,3.32-.17,1.66,1.39,4.33-1.04,5.23-.74.27-3.99-.35-5.25-.38-4.41-.1-3.53-.43-7.34-1.59-1.15-.35-5.79-1.51-6.68-1.3-3.26.76-.46,6.98-1.59,7.92l-11.5.15c-1.26-1.08-2.18-2.67-3.28-4-8.17-9.87-10.73-20.28-15.77-32.91-.32-.79-2.44-5.48-2.66-5.64-.66-.49-1.88.95-2.87,1.13-2.52.46-13.1-1.16-14.1,1.13-.4.92-.07,2.21-.34,3.08-.7,2.26-3.11,6.67-3.54,1.94-.49-5.5-.03-13.83.02-19.64.11-13.41.98-26.57,1.81-39.81Z"/>
    <path class="cls-29" d="M279.91,198.46c.79,2.39,1.3-.47,2.51-.6,2.1-.23,4.36,3.41,5.96,4.61,4.08,3.07,7.25,3.18,11.06,5.05,1.31.64,6.34,3.62,7.41,4.49,1.93,1.57.85,4.44,3.01,4.02-.42,1.16-.61,3.27-.91,4.1-4.08,11.26-9.04,28.17-13.74,38.19-.73,1.56-2.45,4.68-3.97,4.28-1.9-.5-2-2.53-2.7-2.96-.86-.53-1.94-.14-2.86-.42-2.47-.75-3.99-2.01-6.68.13-3.07-22.86-2.83-38.24.91-60.89Z"/>
    <path class="cls-26" d="M184.17,185.58c-.54,3.81-.98,9.08-1.8,12.61-.64,2.78-.97-.49-1.28-1.3-5.37-14.4-10.42-28.33-16.43-42.34-4.44-10.36-9.09-20.5-14.07-30.45,3.26,1.22,2.05-.12,2.97-2.32.75-1.79,5.99-2.35,7.88-3.88.37-.3,3.83-3.67,4.01-3.9.87-1.14,1.15-4.21,3.91-3.4.38.11.25,1.09.32,1.15.91.87.82-.82,1.19-1.12.93-.78,3.13-3.08,3.32-3.21,2.09-1.4,5.75-1.71,7.89-.31l4.36-1.75c3.5,27.09,1.55,53.37-2.27,80.22Z"/>
    <path class="cls-2" d="M221.37,261.69c.09,1.77-.13,3.4,1.13,4.67,2.39-1.88,2.56-4.85,3.76-7.43,1.47-3.16,2.7-.87,4.96-.31,5.1,1.26,10.66.5,15.08,2.79.69.36,1.83.1,2.31.53.84.77.11,3.74,1.23,4.42,1.08.66,2.79-.2,3.9.02,1.78.35,7.4,3.75,7.09-.61,4.93,12.95,10.68,25.59,15.43,38.64.62,1.71,1.2,3.53,1.82,5.27,2.48,7.05,4.68,14.42,6.81,21.66-4.13,2.23-3.43-5.56-7.5-5.89-1.02-.08-3.71.53-4.63,1.07-1.1.64-1.78,2.56-2.71,2.94-3.71,1.5-10.41-.16-14.43-.45-2.03-.15-4.09.1-6.12,0,2.11-9.84-4.27-7.38-9.32-7.58-1.12-.05-6.22-1.59-6.58.36-.91,4.96,3.75,6.45.48,10.73-1.22-3.24-1.44-6.72-2.38-10.1-.5-1.79-1.44-3.39-1.92-5.13-1.49-5.35-3.15-14.97-5.29-19.51-1.46-3.09-4.01,1.06-5.83,1.96.1-1.54-.1-3.15,0-4.68.01-.17.62-.86.47-1.42l2.25-31.96Z"/>
  </g>
  <text class="cls-18" transform="translate(319.2 428.4) scale(.76 1)"><tspan x="0" y="0">OLT</tspan></text>
</svg>